<svg xmlns="http://www.w3.org/2000/svg" width="12" height="13" viewBox="0 0 12 13" fill="none">
  <g clip-path="url(#clip0_7448_90658)">
    <path d="M6 1.4585C7.29293 1.4585 8.53291 1.97211 9.44715 2.88635C10.3614 3.80059 10.875 5.04057 10.875 6.3335C10.875 7.62643 10.3614 8.8664 9.44715 9.78064C8.53291 10.6949 7.29293 11.2085 6 11.2085C4.70707 11.2085 3.46709 10.6949 2.55285 9.78064C1.63861 8.8664 1.125 7.62643 1.125 6.3335C1.125 5.04057 1.63861 3.80059 2.55285 2.88635C3.46709 1.97211 4.70707 1.4585 6 1.4585ZM6 12.3335C7.5913 12.3335 9.11742 11.7014 10.2426 10.5761C11.3679 9.45092 12 7.9248 12 6.3335C12 4.7422 11.3679 3.21607 10.2426 2.09086C9.11742 0.965637 7.5913 0.333496 6 0.333496C4.4087 0.333496 2.88258 0.965637 1.75736 2.09086C0.632141 3.21607 0 4.7422 0 6.3335C0 7.9248 0.632141 9.45092 1.75736 10.5761C2.88258 11.7014 4.4087 12.3335 6 12.3335ZM4.3125 3.3335C4.00078 3.3335 3.75 3.58428 3.75 3.896V7.0835V8.771C3.75 9.08272 4.00078 9.3335 4.3125 9.3335C4.62422 9.3335 4.875 9.08272 4.875 8.771V7.646H6.46875C7.65938 7.646 8.625 6.68037 8.625 5.48975C8.625 4.29912 7.65938 3.3335 6.46875 3.3335H4.3125ZM6.46875 6.521H4.875V4.4585H6.46875C7.03828 4.4585 7.5 4.92021 7.5 5.48975C7.5 6.05928 7.03828 6.521 6.46875 6.521Z" fill="url(#paint0_linear_7448_90658)"/>
  </g>
  <defs>
    <linearGradient id="paint0_linear_7448_90658" x1="6" y1="0.333496" x2="6" y2="12.3335" gradientUnits="userSpaceOnUse">
      <stop stop-color="#FEC547"/>
      <stop offset="1" stop-color="#B60AC0"/>
    </linearGradient>
    <clipPath id="clip0_7448_90658">
      <rect width="12" height="12" fill="white" transform="translate(0 0.333496)"/>
    </clipPath>
  </defs>
</svg>