<svg xmlns="http://www.w3.org/2000/svg" viewBox="0 0 1512 824" preserveAspectRatio="xMidYMid" width="1512" height="824" style="shape-rendering: auto; display: block; background: #000;"><g data-idx="1"><linearGradient y2="1" y1="0" x2="0" x1="0" id="lg-nq4q5u6dq7r-0" data-idx="2">
  <stop offset="0" stop-color="#081c54" data-idx="3"></stop>
  <stop offset="1" stop-color="#225ea8" data-idx="4"></stop>
</linearGradient><linearGradient y2="1" y1="0" x2="0" x1="0" id="lg-nq4q5u6dq7r-1" data-idx="5">
  <stop offset="0" stop-color="#225ea8" data-idx="6"></stop>
  <stop offset="1" stop-color="#1d91c0" data-idx="7"></stop>
</linearGradient><linearGradient y2="1" y1="0" x2="0" x1="0" id="lg-nq4q5u6dq7r-2" data-idx="8">
  <stop offset="0" stop-color="#1d91c0" data-idx="9"></stop>
  <stop offset="1" stop-color="#41b6c4" data-idx="10"></stop>
</linearGradient><linearGradient y2="1" y1="0" x2="0" x1="0" id="lg-nq4q5u6dq7r-3" data-idx="11">
  <stop offset="0" stop-color="#41b6c4" data-idx="12"></stop>
  <stop offset="1" stop-color="#7fcdbb" data-idx="13"></stop>
</linearGradient><linearGradient y2="1" y1="0" x2="0" x1="0" id="lg-nq4q5u6dq7r-4" data-idx="14">
  <stop offset="0" stop-color="#7fcdbb" data-idx="15"></stop>
  <stop offset="1" stop-color="#c7e9b4" data-idx="16"></stop>
</linearGradient><linearGradient y2="1" y1="0" x2="0" x1="0" id="lg-nq4q5u6dq7r-5" data-idx="17">
  <stop offset="0" stop-color="#c7e9b4" data-idx="18"></stop>
  <stop offset="1" stop-color="#f3f8cf" data-idx="19"></stop>
</linearGradient><linearGradient y2="1" y1="0" x2="0" x1="0" id="lg-nq4q5u6dq7r-6" data-idx="20">
  <stop offset="0" stop-color="#f3f8cf" data-idx="21"></stop>
  <stop offset="1" stop-color="#081c54" data-idx="22"></stop>
</linearGradient><path fill-opacity="0.88" fill="url(#lg-nq4q5u6dq7r-0)" d="M 0 0 L 0 966.283 Q 151.2 923.032 302.4 895.284 T 604.8 752.101 T 907.2 735.929 T 1209.6 641.716 T 1512 629.649 L 1512 0 Z" data-idx="23">
  
</path><path fill-opacity="0.88" fill="url(#lg-nq4q5u6dq7r-1)" d="M 0 0 L 0 647.138 Q 151.2 625.304 302.4 603.87 T 604.8 675.762 T 907.2 614.788 T 1209.6 539.936 T 1512 542.728 L 1512 0 Z" data-idx="25">
  
</path><path fill-opacity="0.88" fill="url(#lg-nq4q5u6dq7r-2)" d="M 0 0 L 0 668.175 Q 151.2 540.7 302.4 493.269 T 604.8 523.623 T 907.2 553.517 T 1209.6 402.434 T 1512 438.726 L 1512 0 Z" data-idx="27">
  
</path><path fill-opacity="0.88" fill="url(#lg-nq4q5u6dq7r-3)" d="M 0 0 L 0 460.316 Q 151.2 461.076 302.4 433.317 T 604.8 351.977 T 907.2 406.074 T 1209.6 376.262 T 1512 275.505 L 1512 0 Z" data-idx="29">
  
</path><path fill-opacity="0.88" fill="url(#lg-nq4q5u6dq7r-4)" d="M 0 0 L 0 324.378 Q 151.2 335.608 302.4 317.117 T 604.8 337.813 T 907.2 247.22 T 1209.6 189.199 T 1512 274.777 L 1512 0 Z" data-idx="31">
  
</path><path fill-opacity="0.88" fill="url(#lg-nq4q5u6dq7r-5)" d="M 0 0 L 0 182.754 Q 151.2 176.928 302.4 141.351 T 604.8 138.82 T 907.2 155.187 T 1209.6 160.343 T 1512 158.951 L 1512 0 Z" data-idx="33">
  
</path><g data-idx="35"></g></g><text data-watermark="true" text-anchor="middle" dominant-baseline="middle" stroke-opacity="0.1" fill="black" fill-opacity="0.1" stroke="white" stroke-width="1" font-size="15.0" x="756.0" y="412.0" data-idx="36" style="opacity: 1; font-size: 15px;">LOADING.IO</text></svg>