<svg xmlns="http://www.w3.org/2000/svg" width="1512" height="824" preserveAspectRatio="xMidYMid" style="shape-rendering:auto;display:block;background:#fff"><g data-idx="1"><style data-idx="2">path{stroke-linejoin:round;stroke-linecap:round;stroke-width:.8;stroke:#fff}</style><path fill="#209B51" d="m1048.95 165.68 29.93 4.3-1.69 21.22-36.87 22.95-12.18-7.25" data-idx="3" style="stroke:#fff"/><path fill="#920C28" d="m1357.15 68.87 5.06-4.79 14.93-9.97 29.69 20.29 8.06 19.05-52.21 17.39-8.45-5.67" data-idx="5" style="stroke:#fff"/><path fill="#B2DE72" d="m649.62 149.26 12.12-17.52.39.15 37.88 40.34-31.46 15.22" data-idx="7" style="stroke:#fff"/><path fill="#FAFDB8" d="m510.51 571.69 5.25 66.83-41.33 13.8-20.53-69.79" data-idx="9" style="stroke:#fff"/><path fill="#026C39" d="M1347.74 824h-130.83l-3.42-23.55 3.95-21.21 113.64 8.17 13.06 25.81" data-idx="11" style="stroke:#fff"/><path fill="#BB1526" d="m1419.35 42.59 6.82 13.56-10.32 38.01-.96-.71-8.06-19.05" data-idx="13" style="stroke:#fff"/><path fill="#FEEA9C" d="M603.09 0h18.19l14.23 22.63-19.93 3.03-9.6-13.99" data-idx="15" style="stroke:#fff"/><path fill="#FDAE61" d="m321.83 119.92 8.44-6.08 9.55 9.9-4.51 45.08-40.36 13.41" data-idx="17" style="stroke:#fff"/><path fill="#FFFAB6" d="m424.41 58.29 64.41-29.82 28.56 17.67-5.87 39.07-44.31 25.68-36.92-32.4" data-idx="19" style="stroke:#fff"/><path fill="#FECE7C" d="m517.4 699.15 6.84 42.02-19.74 7.37-48.44-46.21 15.45-15.92" data-idx="21" style="stroke:#fff"/><path fill="#245133" d="m1224.64 174.14 27.08-.53 18.33 14.81 2.14 23.31-1.76 5.05-21.21 36.61-34.9-24.08" data-idx="23" style="stroke:#fff"/><path fill="#FFFEBE" d="m422.1 161.69 22.98-6.99 3.05 34.6-8.68 11.55-15.95 6.03" data-idx="25" style="stroke:#fff"/><path fill="#F57346" d="M88.88 824H59.26l29.3-.8" data-idx="27" style="stroke:#fff"/><path fill="#E34932" d="m98.34 632.38 47.08 41.61-8.32 8.99-51.27.44-23.61-39.1 1.94-2.01 23.63-11.33" data-idx="29" style="stroke:#fff"/><path fill="#FCA45C" d="m289.66 215.82 19.68 41.89-11.73 33.36-6.12 3.98-56.84-10.58-23.39-44.86" data-idx="31" style="stroke:#fff"/><path fill="#881229" d="m1419.35 42.59-1.74-12.67 5.2-5.29 69.07 43.2-44.92 12.68-20.79-24.36" data-idx="33" style="stroke:#fff"/><path fill="#FDC070" d="m359.9 404.4 1.01 3.92-36.74 40.27-21.12-17.63-.74-4.75" data-idx="35" style="stroke:#fff"/><path fill="#374531" d="m1260.07 544.69 23.06-6.76 32.78 38.68-23.46 31.82-3.42.51-61.99-9.65-1.88-6.86" data-idx="37" style="stroke:#fff"/><path fill="#E6F49D" d="m548.98 580.42 36.69 39.45-42.36 10.17" data-idx="39" style="stroke:#fff"/><path fill="#68BE63" d="m801.15 120.44 16.15-12.09 14.31-3.87 26.48 45.86-30.13 54.33L804 158.59l-5-21.4" data-idx="41" style="stroke:#fff"/><path fill="#B2DE72" d="m808.11 719.18 38.4-8.4 2.43 2.32-2.1 44.1-24.19 61.98-35.06-39.79-17.03-31.25 2.8-6.63" data-idx="43" style="stroke:#fff"/><path fill="#AA0526" d="m1127.71 107.42 66.1-56.2 2.48 62.71-3.02 8.02-10.69 10.46-8.44 2.87-26.36-8.33-3.04-2.33" data-idx="45" style="stroke:#fff"/><path fill="#259D53" d="m1031.63 266.03 19.21-9.35 20.06 53.21-32.65 1.2-16.1-14.73" data-idx="47" style="stroke:#fff"/><path fill="#CAE982" d="m761.9 643.62 19.35 36.37-.95 2.58-29.79 13.4-10.38-4.08" data-idx="49" style="stroke:#fff"/><path fill="#90CF68" d="m914.23 412.97 12.27 2.61 10.23 22.72 5.34 15.16-.31 1.07L887 426.87" data-idx="51" style="stroke:#fff"/><path fill="#FDB769" d="m404.16 233.65.96-.44 48.76 36.71 2.47 3.56-52.12 35.9-22.21-20.59.98-11.13" data-idx="53" style="stroke:#fff"/><path fill="#D93429" d="M1512 667.86v36.81l-13.52-3.18-28.9-24.18 10.02-31.03" data-idx="55" style="stroke:#fff"/><path fill="#0B7C41" d="m1114.13 465.8 52.46 22.38 1.82 6.09-49.39 18.95-2.48-6.14" data-idx="57" style="stroke:#fff"/><path fill="#FDC474" d="m263.84 688.26 4.91 33.59-29.63 33.33-11.13-70.27" data-idx="59" style="stroke:#fff"/><path fill="#FED481" d="m155.9 117.44 53.33-5.67 2.19 3.23L171 184.76l-43.07-18.68.65-17.89" data-idx="61" style="stroke:#fff"/><path fill="#FECE7C" d="m309.34 257.71 18.51-5.54L383 277.66l-.98 11.13-33.29 31.03-.16.04-50.96-28.79" data-idx="63" style="stroke:#fff"/><path fill="#FCFEBA" d="m519.02 641.32 12.1 5.03 8.05 15.91 1.4 12.55-23.15 23.32-40.4-19.59-.05-5.19" data-idx="65" style="stroke:#fff"/><path fill="#F88C51" d="m299.3 559.21 3.14 3.14 17.71 43.15-11.93 28.12-20.94 20.34-45.12-29.34 19.58-45.09" data-idx="67" style="stroke:#fff"/><path fill="#5C2E2D" d="m1313.35 170.98 26.21 17.82-1.5 6.54-65.87 16.39-2.14-23.31" data-idx="69" style="stroke:#fff"/><path fill="#F57346" d="M110.41 824H88.88l-.32-.8.13-3.86 7.63-35.39 24.1 19.19" data-idx="71" style="stroke:#fff"/><path fill="#B00A26" d="m1155.81 250.77 30.44-17.55 2.32 50.44-32.91-8.62" data-idx="73" style="stroke:#fff"/><path fill="#FDC675" d="M375.54 0h8.91l18.98 40.18-41.23 39.7-31.88 15.35-35.58-30.99.62-1.08" data-idx="75" style="stroke:#fff"/><path fill="#E64F35" d="m180.32 569.54 19.51 12.13-2.38 8.98-27.1 22.73-34.34-56.62" data-idx="77" style="stroke:#fff"/><path fill="#FDAF62" d="m108.71 359.79 11.88-1.67 16.48 14.93 1.79 60.78-7.39 1.16-44.43-11.01 6.44-57.84" data-idx="79" style="stroke:#fff"/><path fill="#F99053" d="M102.81 0h109.76l1.27 9.35-22.83 39.24-47.32 12.36-27.48-10.6" data-idx="81" style="stroke:#fff"/><path fill="#F67E4B" d="M0 72.65V0h102.81l13.4 50.35-13.31 36.3-75.39 9.26" data-idx="83" style="stroke:#fff"/><path fill="#D52E27" d="m1406.62 159.68 12.91-6.31 55.32 7.44-16.64 69.25-38.85 3.84" data-idx="85" style="stroke:#fff"/><path fill="#5EB961" d="m752.36 498.51.43-2.98 18.01-16.15 20.68 6.18 22.86 22.2 1.62 48.25-6.1 17.04-2.1 2.26-9.71 3.1-15.42-12.3" data-idx="87" style="stroke:#fff"/><path fill="#970927" d="m1316.27 295.42 19.65-.64 18.01 27.84-48.59 21.97-13.03-15.57" data-idx="89" style="stroke:#fff"/><path fill="#9DD569" d="m940.31 561.03 1.39 2.33-.51 21.54-8.33 12.88-46.84-39.17-1.51-7.05" data-idx="91" style="stroke:#fff"/><path fill="#F88B51" d="m258.13 111.15 20.29-24.11 43.29 32.87-67.85 22.28-3.5-12.61" data-idx="93" style="stroke:#fff"/><path fill="#EFF8A9" d="m662.44 311.34 10.29 2.02 20.23 27.08 3.31 34.44-64.37-20.14-7.3-24.53" data-idx="95" style="stroke:#fff"/><path fill="#FFF9B5" d="m526.34 477.89 2.68-1.34 89.36 17.74 6.73 9.36-49.58 63.09-29.14 8.35-22.76-12.16" data-idx="97" style="stroke:#fff"/><path fill="#31A356" d="m1073.96 585.89 31.88 5.64 26.86 22.13 1.3 13.5-57.47-29.79" data-idx="99" style="stroke:#fff"/><path fill="#FEEC9F" d="m471.25 122.15 9.38 7.02 4.61 54.78-37.11 5.35-3.05-34.6" data-idx="101" style="stroke:#fff"/><path fill="#A20226" d="m1339.2 209.67 12.59 18.49-21.19 29.92-17.2-15.56" data-idx="103" style="stroke:#fff"/><path fill="#9DD569" d="m913.68 130.11.63 1.1-6.76 9.96" data-idx="105" style="stroke:#fff"/><path fill="#9ED569" d="m831.61 104.48 9.11-11.12L913 111.79l.68 18.32-6.13 11.06-17.56 28.62-14.07-3.69-17.83-15.76" data-idx="107" style="stroke:#fff"/><path fill="#7FC866" d="m794.87 258.61.8-2.41 10.58-11.08 6.91-1.62 48.63 47.55-10.82 21.32-12.91 12.57-22.72-9.97" data-idx="109" style="stroke:#fff"/><path fill="#EDF8A7" d="m405.65 450.38 42.75-10.79 6.78 1.8 23.71 23.8-46.57 69.55-49.52-24.89-7.93-9.85" data-idx="111" style="stroke:#fff"/><path fill="#EFF8A9" d="m416.72 158.24 5.38 3.45 1.4 45.19-13.63 13.17-4.29-7.45" data-idx="113" style="stroke:#fff"/><path fill="#FFF6AF" d="m499.29 298.05 28.98 7.87 11.86 25.21-5.11 20.58-13.78 8.96-31.56-10.4" data-idx="115" style="stroke:#fff"/><path fill="#443D30" d="m1176.97 166.82 42.32 1.67 1.39.53 3.96 5.12-10.32 55.17-27.02 2.93-28.3-42.72" data-idx="117" style="stroke:#fff"/><path fill="#F88D52" d="m335.31 168.82 21.58 7.61-10.1 27-52.83-9.52-2.47-8.54 3.46-3.14" data-idx="119" style="stroke:#fff"/><path fill="#8BCD67" d="m984.9 639.92 17.83-4.88-3.4 80.48-37.15-10.37-6.43-17.18 5.92-13.69" data-idx="121" style="stroke:#fff"/><path fill="#AB0626" d="m1241.78 435.77 46.44 16.76 13.88 29.43-50.62 9.54-22.14-6.95-4.19-16.45" data-idx="123" style="stroke:#fff"/><path fill="#B40F26" d="M1512 591.81v76.05l-32.4-21.58-.29-5.37 31.33-48.92" data-idx="125" style="stroke:#fff"/><path fill="#FDAF61" d="m197 408.47 17.08 10.44-7.91 16.77-27.98 37.59-34.75-36.9" data-idx="127" style="stroke:#fff"/><path fill="#7CC765" d="m919.91 470.25 20.96-11.01 18.9 21.04-19.84 25.75-6.98-3.53-10.97-23.2" data-idx="129" style="stroke:#fff"/><path fill="#F7844E" d="m240.92 353.51 2.06 1.44-5.7 40.49-4.16 4.51-17.34-20.66" data-idx="131" style="stroke:#fff"/><path fill="#FFF6B0" d="m521.24 360.67 13.78-8.96 33.17 35.11-2.06 27.08-17.79 18.41-33.67-53.98" data-idx="133" style="stroke:#fff"/><path fill="#D73127" d="m1385.45 554.08 1.48.69.11 26.72-4.22 19.32-2.96 1.11-31.36-25.07" data-idx="135" style="stroke:#fff"/><path fill="#FEE695" d="m511.21 224.25 6.89-.84 6.3 33.3-25.83 40.72-23.88-11.88" data-idx="137" style="stroke:#fff"/><path fill="#B30E26" d="M1360.54 0h67.54l-5.27 24.63-5.2 5.29-28.46 5.94" data-idx="139" style="stroke:#fff"/><path fill="#EEF8A8" d="m607.47 189.88.43-.02 53.68 3.4 1.43 29.29-14.35 17.66-.74.14" data-idx="141" style="stroke:#fff"/><path fill="#0C7E43" d="m1047.03 473.46 2.98 29.69-26.27 42.26-5.73 2.31-11.82-10.03.84-20.7" data-idx="143" style="stroke:#fff"/><path fill="#FFF3AC" d="m560.45 192.46 4.41-4.73 8.38-4.16 12.42 85-23.56 9.6" data-idx="145" style="stroke:#fff"/><path fill="#96D268" d="m910.19 188.39 12.5.01 22.38 31.47L930.99 235l-23.04-7.87-11.04-9.75" data-idx="147" style="stroke:#fff"/><path fill="#AE0826" d="m1374.83 261.1 3.44-5.88 29.88-3.94 8.11 15.07-9.35 36.44-23.11 11.86" data-idx="149" style="stroke:#fff"/><path fill="#FDAB60" d="m251.87 497.79 7.3-1.19 37.98 30.37 2.15 32.24-37.56 20.32-50.17-9.46-3.63-23.97v-5.4" data-idx="151" style="stroke:#fff"/><path fill="#FDC373" d="m251.87 497.79-43.93 42.91-10.1-11-19.07-51.02.05-.09" data-idx="153" style="stroke:#fff"/><path fill="#E34832" d="M0 335.85v-54.71l69.76 13.77 5.47 7.21-37.16 49.45-4.4.35" data-idx="155" style="stroke:#fff"/><path fill="#97D268" d="m907.95 227.13 23.04 7.87-7.08 24.86" data-idx="157" style="stroke:#fff"/><path fill="#FEE594" d="m536.74 44.12 36.02-11.11 11.26 35.2-5.21 2.73-30.74-11.7" data-idx="159" style="stroke:#fff"/><path fill="#F0653F" d="m168.66 616.95-10.96 55.23-12.28 1.81-47.08-41.61 19.56-37.84" data-idx="161" style="stroke:#fff"/><path fill="#96D268" d="m909.72 530.4 25.97 3.47 4.62 27.16-55.8-9.47-4.37-9.62.8-4.96" data-idx="163" style="stroke:#fff"/><path fill="#D1EB86" d="m575.53 566.74 47.75 30.79-2.26 34.85-5.21 4.7-.43-.15-29.71-17.06-36.69-39.45-2.59-5.33" data-idx="165" style="stroke:#fff"/><path fill="#F98E52" d="m206.12 88.56 21.07-12.98 30.94 35.57-7.77 18.43L211.42 115l-2.19-3.23" data-idx="167" style="stroke:#fff"/><path fill="#50B25D" d="m1055.12 64.1 2.91-1.66 40.4 42.25-5.41 8.21-60.19 15.77-8.77-31.47" data-idx="169" style="stroke:#fff"/><path fill="#4EB15D" d="m1012.8 382.01 23.69-21.63 29.92-3.51 33.63 15.22-2.4 7.58-44.06 63.69-10.7 2.05-6.05-2.59-21.56-28.13-5.64-15.83" data-idx="171" style="stroke:#fff"/><path fill="#33A456" d="m1088.73 312.26 22.72-14.63 22.48 7.97 15.19 28.16-12.09 29.42-25.91 2.73" data-idx="173" style="stroke:#fff"/><path fill="#5A2F2E" d="m1196.29 113.93 19.57-9.24 19.39 26.67-12.62 15.23-29.36-24.64" data-idx="175" style="stroke:#fff"/><path fill="#A50026" d="m1352.76 626.21 18.54-10.59 20.04 29.04-23.86 47.32-14.03 3.73-3.31-4.1" data-idx="177" style="stroke:#fff"/><path fill="#FEEDA1" d="m548.07 59.24 30.74 11.7-19.48 59.94-6.91-3.79-14.69-24.91" data-idx="179" style="stroke:#fff"/><path fill="#DE3F2E" d="m166.42 86.11 25.12-7.83 14.58 10.28 3.11 23.21-53.33 5.67" data-idx="181" style="stroke:#fff"/><path fill="#B81226" d="m1435.2 675.96 34.38 1.35 28.9 24.18-50.07 40.55-22.24-29.82-4.05-14.83" data-idx="183" style="stroke:#fff"/><path fill="#F67A49" d="m197.45 590.65 43.63 34.48-29.15 52.8-30.81 4.78-23.42-10.53 10.96-55.23 1.69-3.57" data-idx="185" style="stroke:#fff"/><path fill="#EDF7A6" d="m663.01 222.55 36.54-4.9 18.25 15.36 2.05 11.83-6.43 9.01-16.9 11.94-47.86-25.58" data-idx="187" style="stroke:#fff"/><path fill="#DB372A" d="m1333.22 504.28 35.49 17.94 16.74 31.86-36.95 22.77-22.09-7.37" data-idx="189" style="stroke:#fff"/><path fill="#F46F44" d="m145.42 673.99 12.28-1.81 23.42 10.53 6.61 49.56-24.21 22.12-48.73-10.05.46-15.56 21.85-45.8" data-idx="191" style="stroke:#fff"/><path fill="#89CC67" d="m730.18 521.55 22.18-23.04 30.27 67.6-73.79 20.94" data-idx="193" style="stroke:#fff"/><path fill="#FDB566" d="m356.89 176.43 10.39-5.39 38.3 41.56 4.29 7.45-4.75 13.16-.96.44-40.05-6.77-17.32-23.45" data-idx="195" style="stroke:#fff"/><path fill="#09783F" d="m1241.74 410.05 5.75-3.33 41.56 33.34-.83 12.47-46.44-16.76" data-idx="197" style="stroke:#fff"/><path fill="#F57748" d="M177.87 374.3 197 408.47l-53.56 27.9-4.58-2.54-1.79-60.78" data-idx="199" style="stroke:#fff"/><path fill="#FCA35C" d="m215.54 11.68 78.07 52.94-5.62 4.72-55.17-3.6" data-idx="201" style="stroke:#fff"/><path fill="#FDB567" d="m430.28 78.49 36.92 32.4 4.05 11.26-26.17 32.55-22.98 6.99-5.38-3.45-23.45-24.82 4.59-11.19" data-idx="203" style="stroke:#fff"/><path fill="#40AA59" d="m959.77 480.28 16.98 3.44 4.81 46.48-11.58 3.28-26.87-7.39-3.18-20.06" data-idx="205" style="stroke:#fff"/><path fill="#FBFDBA" d="m412.27 349.97 25.87-6.65 34.55 22.03 2.85 20.31-20.36 55.73-6.78-1.8-43.31-76.25 3.14-9.08" data-idx="207" style="stroke:#fff"/><path fill="#DF412F" d="m48.93 590.97-6.31 13.92-32.11-3.04 20.85-31.6" data-idx="209" style="stroke:#fff"/><path fill="#5DB861" d="m735.49 692.92 4.64-1.03 10.38 4.08 19.64 31.71 3.21 13.83-2.8 6.63-40.37 4.97" data-idx="211" style="stroke:#fff"/><path fill="#A3D86A" d="m699.76 381.66 48.77 2.83 32.31 51.44-8.33 30.22-73.75-22.95-11.79-20.72-1.27-14.95" data-idx="213" style="stroke:#fff"/><path fill="#B4DF73" d="m781.37 687.86 26.74 31.32-34.75 22.33-3.21-13.83" data-idx="215" style="stroke:#fff"/><path fill="#9AD469" d="m855.92 52.37 81.25 10.77 10.1 15.34-5.08 16.36L913 111.79l-72.28-18.43" data-idx="217" style="stroke:#fff"/><path fill="#239C52" d="m935.69 533.87 7.42-7.78 26.87 7.39-10.51 17.56-17.77 12.32-1.39-2.33" data-idx="219" style="stroke:#fff"/><path fill="#F7804C" d="m300.17 420.7 2.14 5.51.74 4.75-40.42 44.26-38.07-60.74 4.87-5.7" data-idx="221" style="stroke:#fff"/><path fill="#44AD5B" d="m920.96 658.26 40.71 16.02-5.92 13.69-37.79-11.44-.95-2.98" data-idx="223" style="stroke:#fff"/><path fill="#C92227" d="m1397.79 447.64 59.65 20.27 6.37 7.67.73 16.63-75.55-21.23-4.65-5.01" data-idx="225" style="stroke:#fff"/><path fill="#165A35" d="m1155.66 275.04 32.91 8.62 28.63 27.57-29.57 18.56-38.51 3.97-15.19-28.16" data-idx="227" style="stroke:#fff"/><path fill="#FEE593" d="m211.42 115 38.94 14.58 3.5 12.61 1.45 18.77-66.4 38.33L171 184.76" data-idx="229" style="stroke:#fff"/><path fill="#BA1426" d="m1320.6 56.54 36.55 12.33-2.92 36.3-20.34 6.45-40.3-1.16-6.94-4.33-1.87-2.44" data-idx="231" style="stroke:#fff"/><path fill="#FEEEA3" d="M409.61 824H377.2l-31.07-52.6 34.67-52.22 39.65 60.81" data-idx="233" style="stroke:#fff"/><path fill="#0A7A41" d="m1306.28 676.66 7.33-2.7 1.63-.03 13.6 8.44-30.34 69.67-38.57-29.38" data-idx="235" style="stroke:#fff"/><path fill="#EA5839" d="M0 733.36v-1.93l88.82-8.79 26.43 6.14-.46 15.56-2.6 6.61-21.54 19.73-14.36 1.12-12.73-1.63-15.42-5.89" data-idx="237" style="stroke:#fff"/><path fill="#05723C" d="m1057.25 587.95 15.14-4.55 1.57 2.49 2.57 11.48-12.45 37.21-45-13.75.91-14.53" data-idx="239" style="stroke:#fff"/><path fill="#F3FAAE" d="m615.58 25.66 19.93-3.03 16.79-.3 19.75 19.92-3.36 26.53-5.86 4.75-48.41-12.41-.83-12.86" data-idx="241" style="stroke:#fff"/><path fill="#FED07E" d="m234.65 284.47 56.84 10.58-7.12 51.6-41.39 8.3-2.06-1.44-20.52-24.93-6.2-12.92" data-idx="243" style="stroke:#fff"/><path fill="#D8EF8A" d="m475.54 385.66 39.13-7.33 33.67 53.98-19.32 44.24-2.68 1.34-47.45-12.7-23.71-23.8" data-idx="245" style="stroke:#fff"/><path fill="#FEDA86" d="m382.02 288.79 22.21 20.59 8.04 40.59-4.04 4.29-59.5-34.44" data-idx="247" style="stroke:#fff"/><path fill="#FEEFA5" d="m348.57 319.86.16-.04 59.5 34.44-3.14 9.08-44.63 21.2-27.66-15.88" data-idx="249" style="stroke:#fff"/><path fill="#9ED569" d="m932.95 502.5 6.98 3.53 3.18 20.06-7.42 7.78-25.97-3.47" data-idx="251" style="stroke:#fff"/><path fill="#A90426" d="m1254.81 267.31 29.02-.45 21.44 10.68 11 17.88-23.96 33.6-48.01-21.1" data-idx="253" style="stroke:#fff"/><path fill="#7DC765" d="m942.19 94.84 5.08-16.36 15.71-.03L985.9 93.4l12.78 55.92-30.26 6.78-12.1-18" data-idx="255" style="stroke:#fff"/><path fill="#2A4E33" d="m1182.58 132.41 10.69-10.46 29.36 24.64-1.95 22.43-1.39-.53" data-idx="257" style="stroke:#fff"/><path fill="#16904C" d="m1097.64 379.67 29.85 62.76-16.2 13.21-57.71-12.28" data-idx="259" style="stroke:#fff"/><path fill="#05723C" d="m1144.4 555.92 50.37-.75 30.39 37.26 1.88 6.86-9.62 17.32-62.99 49.13-10.1-8.15-10.33-30.43-1.3-13.5" data-idx="261" style="stroke:#fff"/><path fill="#51352F" d="m1328.84 682.37 15.26 5.43 6.04 3.81 3.31 4.1-23.92 86.33-31.03-30" data-idx="263" style="stroke:#fff"/><path fill="#F7844E" d="m178.77 478.68 19.07 51.02-47.97-5.74 3.54-20.94" data-idx="265" style="stroke:#fff"/><path fill="#98D369" d="M586.1 0h16.99l2.89 11.67-32.12 19.65" data-idx="267" style="stroke:#fff"/><path fill="#95D268" d="m780.84 435.93 13.12-3.95 73.97 29.38-4.6 9.82-71.85 14.38-20.68-6.18 1.71-13.23" data-idx="269" style="stroke:#fff"/><path fill="#52342F" d="m1171.84 406.22 24.91-12.04 5.12-.51 39.87 16.38.04 25.72-16.63 32.33-52.66-34.43-6.15-9.21" data-idx="271" style="stroke:#fff"/><path fill="#05713B" d="m1338.06 195.34.21 9.39-67.84 12.05 1.76-5.05" data-idx="273" style="stroke:#fff"/><path fill="#31A356" d="m963.74 312.04 58.41-15.68 16.1 14.73-1.76 49.29-23.69 21.63" data-idx="275" style="stroke:#fff"/><path fill="#D83128" d="M1286.77 0h46.53l-.31.69-18.54 28.78-17.42-3.68" data-idx="277" style="stroke:#fff"/><path fill="#04703B" d="m1013.42 151 5.37-2.71 30.16 17.39-20.81 41.22-5.48-1.21-2.94-2.78" data-idx="279" style="stroke:#fff"/><path fill="#FFF0A6" d="m613.33 175.58-5.43 14.28-.43.02-9.51-5.38" data-idx="281" style="stroke:#fff"/><path fill="#E9F6A0" d="m488.02 187.01 47.52-6.17 29.32 6.89-4.41 4.73-42.35 30.95-6.89.84-24.52-12.41" data-idx="283" style="stroke:#fff"/><path fill="#04703B" d="M1147.39 0h49.5l9.4 24.15-12.48 27.07-66.1 56.2-22.48-4.9" data-idx="285" style="stroke:#fff"/><path fill="#DFF293" d="m659.85 546.39 43.88 45.51 1.71 23.7-12.78 13.24-71.64 3.54 2.26-34.85" data-idx="287" style="stroke:#fff"/><path fill="#ABDB6D" d="m799 137.19 5 21.4-10.27-5.35" data-idx="289" style="stroke:#fff"/><path fill="#404030" d="m1186.25 233.22 1.05-.98 27.02-2.93 34.9 24.08 5.59 13.92-10.51 40.61-.99.92-26.11 2.39-28.63-27.57" data-idx="291" style="stroke:#fff"/><path fill="#C6E77E" d="m889.33 716.35 9.38 9.75 1.92 41.17-53.79-10.07 2.1-44.1" data-idx="293" style="stroke:#fff"/><path fill="#0A7A40" d="m1007.03 44.3 28.08-19.6 22.01 22.28.91 15.46-2.91 1.66" data-idx="295" style="stroke:#fff"/><path fill="#DFF193" d="m615.49 650.8 39.14 49.78-8 19.59-58.33 11.07-3.6-32.33" data-idx="297" style="stroke:#fff"/><path fill="#279E53" d="m1076.53 597.37 57.47 29.79 10.33 30.43-65.26-8.06-14.99-14.95" data-idx="299" style="stroke:#fff"/><path fill="#DE3F2E" d="M0 678.82V608.9l10.51-7.05 32.11 3.04 21.54 37.42-1.94 2.01" data-idx="301" style="stroke:#fff"/><path fill="#DC3A2C" d="M0 608.9v-96.23l24.33 7.63 7.03 49.95-20.85 31.6" data-idx="303" style="stroke:#fff"/><path fill="#138B49" d="m1050.84 256.68 9.83-10.16 43.73-7.2 7.05 58.31-22.72 14.63-8.53.92-9.3-3.29" data-idx="305" style="stroke:#fff"/><path fill="#99D369" d="m922.69 188.4 29.35-2.98 12 25.14-18.97 9.31" data-idx="307" style="stroke:#fff"/><path fill="#F57747" d="m224.56 414.48 38.07 60.74-2.55 11.04-53.91-50.58 7.91-16.77" data-idx="309" style="stroke:#fff"/><path fill="#0E5F36" d="m1256.59 721.2 3.34 1.46 38.57 29.38 31.03 30 1.55 5.37-113.64-8.17-13.83-43.85" data-idx="311" style="stroke:#fff"/><path fill="#FFFAB7" d="M475.38 824h-65.77l10.84-44.01 28.37-21.07 28.55 19.16" data-idx="313" style="stroke:#fff"/><path fill="#F8FCB6" d="M579.97 824h-45.82l10.44-75.73 35.22-2.15 18.09 40.37" data-idx="315" style="stroke:#fff"/><path fill="#A6D96A" d="m668.55 187.45 31.46-15.22 7.62 1.44-8.08 43.98-36.54 4.9-1.43-29.29" data-idx="317" style="stroke:#fff"/><path fill="#FFFDBC" d="m485.24 183.95 2.78 3.06-1.33 24.83-7.27 2.54-39.97-13.53 8.68-11.55" data-idx="319" style="stroke:#fff"/><path fill="#FDBC6D" d="m291.49 295.05 6.12-3.98 50.96 28.79-15.77 48.8-29.66 6.12-18.77-28.13" data-idx="321" style="stroke:#fff"/><path fill="#B5E074" d="m930.99 235 14.08-15.13 18.97-9.31.1.1 9.34 42.02-23.93 54.58-19.59 3.88-7.78-7.75 1.73-43.53" data-idx="323" style="stroke:#fff"/><path fill="#EC5C3B" d="m187.73 732.27 5.29 12.94-22.75 18.24-6.75-9.06" data-idx="325" style="stroke:#fff"/><path fill="#F99254" d="m163.52 754.39 6.75 9.06-3.52 27.27-15.45 5.36-8.93-2.02-30.18-43.11 2.6-6.61" data-idx="327" style="stroke:#fff"/><path fill="#BF1927" d="m1389.15 35.86 28.46-5.94 1.74 12.67-12.52 31.81-29.69-20.29" data-idx="329" style="stroke:#fff"/><path fill="#FED985" d="M356.93 618.38 375 651.94l-.1 17.22-7.6 15.97-6.1-.57-52.98-50.94 11.93-28.12" data-idx="331" style="stroke:#fff"/><path fill="#AD0826" d="M1512 824h-160.17l90.54-52.02 69.63 46.95" data-idx="333" style="stroke:#fff"/><path fill="#F9FCB7" d="m433.76 578.31 1.21-.67 18.93 4.89 20.53 69.79-1.4 4.01-47.81-15.31-5.47-27.38" data-idx="335" style="stroke:#fff"/><path fill="#4DB15D" d="m969.98 533.48 11.58-3.28 24.63 7.49 11.82 10.03-7.09 36.16-7.54-1.01-43.91-31.83" data-idx="337" style="stroke:#fff"/><path fill="#BCE278" d="m921.98 479.3 10.97 23.2-23.23 27.9-28.78 6.58-1.19-2.46" data-idx="339" style="stroke:#fff"/><path fill="#33A456" d="m1079.07 649.53 65.26 8.06 10.1 8.15.7 49.21-33.98 34.25-75.59-58.59" data-idx="341" style="stroke:#fff"/><path fill="#F47044" d="M212.57 0h77.94l4.85 63.16-.62 1.08-1.13.38-78.07-52.94-1.7-2.33" data-idx="343" style="stroke:#fff"/><path fill="#04703B" d="m1002.73 635.04 8.58-3.81 32.5 59.52-29.54 32.52-14.94-7.75" data-idx="345" style="stroke:#fff"/><path fill="#EC5C3B" d="m102.9 86.65 13.89 37.04-83.35-9.81-5.93-17.97" data-idx="347" style="stroke:#fff"/><path fill="#FDB668" d="m255.31 160.96 36.18 24.41 2.47 8.54-4.3 21.91-78.4 23.79-14.18-9.54-8.17-30.78" data-idx="349" style="stroke:#fff"/><path fill="#FAFDB8" d="m360.91 408.32 17.27 30.1-44.77 23.11-9.24-12.94" data-idx="351" style="stroke:#fff"/><path fill="#81C966" d="m1003.38 582.87 7.54 1.01 9.07 22.42-.91 14.53-7.77 10.4-8.58 3.81-17.83 4.88L931.34 607l1.52-9.22 8.33-12.88" data-idx="353" style="stroke:#fff"/><path fill="#B5DF74" d="m600.42 274.96 33.51-12.07 28.51 48.45-37.84 18.87-16.31-7.36-4.05-10.88" data-idx="355" style="stroke:#fff"/><path fill="#1A9850" d="M926.71 824H823.68l-1.03-4.82 24.19-61.98 53.79 10.07" data-idx="357" style="stroke:#fff"/><path fill="#E85438" d="M0 275.35v-87.59l46.51-15.72 42.05 17.02-2.78 31.85-17.34 21.43-2.94 2.58" data-idx="359" style="stroke:#fff"/><path fill="#FECD7B" d="m268.75 721.85 31.14 17.73 8.54 28.23-38.16 28.06-33.07-33.93 1.92-6.76" data-idx="361" style="stroke:#fff"/><path fill="#FBA15B" d="m332.8 368.66 27.66 15.88-.56 19.86-57.59 21.81-2.14-5.51-1.75-35.54 4.72-10.38" data-idx="363" style="stroke:#fff"/><path fill="#D0EB85" d="m784.52 614.17 40.15 30.19 1.66 35.14-45.08.49-19.35-36.37-1.91-11.93" data-idx="365" style="stroke:#fff"/><path fill="#B0DD70" d="m688.31 686.15 2.93-2.64 16.3 7.54 1.27 69.42-6.58 4.27" data-idx="367" style="stroke:#fff"/><path fill="#0E8345" d="m1270.43 216.78 67.84-12.05.93 4.94-25.8 32.85-29.57 24.34-29.02.45-5.59-13.92" data-idx="369" style="stroke:#fff"/><path fill="#D12B27" d="m1381.03 318.57 1.78-2.2 19.77 9.16 17.14 61.83-2.86-.82" data-idx="371" style="stroke:#fff"/><path fill="#98D368" d="m858.09 150.34 17.83 15.76-48.04 61.23.08-22.66" data-idx="373" style="stroke:#fff"/><path fill="#165A35" d="m1217.42 616.61 38.52 59.41.65 45.18-52.98 14.19-48.48-20.44-.7-49.21" data-idx="375" style="stroke:#fff"/><path fill="#FFFBB9" d="m382.8 509.85 49.52 24.89 2.65 42.9-1.21.67-40.49-1.53-14.63-11.06 1.8-41.48" data-idx="377" style="stroke:#fff"/><path fill="#A60126" d="m1407.95 504.94 40.38 13.96-.25 3.34-19.36 18.57-30.42 4.41-5.84-25.66" data-idx="379" style="stroke:#fff"/><path fill="#42AB5A" d="m992.91 56.73 5.92-9.61 8.2-2.82 48.09 19.8-31.06 33.1-14.03-5.3" data-idx="381" style="stroke:#fff"/><path fill="#FED27F" d="m405.09 363.34 43.31 76.25-42.75 10.79-27.47-11.96-17.27-30.1-1.01-3.92.56-19.86" data-idx="383" style="stroke:#fff"/><path fill="#EF623E" d="m141.34 501.04 12.07 1.98-3.54 20.94-15.39 31.74-12.22 3.5-17.84-6.54-41.53-40.8 6.02-8.08 28-8.19" data-idx="385" style="stroke:#fff"/><path fill="#791C2B" d="m1174.14 135.28 8.44-2.87 36.71 36.08-42.32-1.67" data-idx="387" style="stroke:#fff"/><path fill="#58B65F" d="m962.18 705.15 37.15 10.37 14.94 7.75 2.87 13.75-2.06 6.85-59.13 27.17-8.95-41.81" data-idx="389" style="stroke:#fff"/><path fill="#FDB768" d="m116.21 50.35 27.48 10.6 22.73 25.16-10.52 31.33-27.32 30.75-11.79-24.5-13.89-37.04" data-idx="391" style="stroke:#fff"/><path fill="#289F54" d="m1041.13 547.51 40.14-.73 1.43.86-10.31 35.76-15.14 4.55" data-idx="393" style="stroke:#fff"/><path fill="#612B2D" d="m1391.34 644.66 39.58-.24 4.28 31.54-13.08 21.43-54.64-5.41" data-idx="395" style="stroke:#fff"/><path fill="#7BC665" d="m992.91 56.73 17.12 35.17-24.13 1.5-22.92-14.95" data-idx="397" style="stroke:#fff"/><path fill="#F8874F" d="M0 717.66v-38.84l62.22-34.5 23.61 39.1-16.15 13.72" data-idx="399" style="stroke:#fff"/><path fill="#91D068" d="m907.55 141.17 6.76-9.96 42.01 6.89 12.1 18-16.38 29.32-29.35 2.98-12.5-.01-20.2-18.6" data-idx="401" style="stroke:#fff"/><path fill="#CD2627" d="M1512 247.56v39.58l-13.07-10.81" data-idx="403" style="stroke:#fff"/><path fill="#6C242C" d="m1338.06 195.34 1.5-6.54 6.13-4.63 57.52-24.87 3.41.38 12.74 74.22-11.21 17.38-29.88 3.94-26.48-27.06-12.59-18.49-.93-4.94" data-idx="405" style="stroke:#fff"/><path fill="#B7E075" d="m891.07 225.72 4.64-7.22 1.2-1.12 11.04 9.75 15.96 32.73-1.73 43.53-11.4-6.56-20.29-40.21" data-idx="407" style="stroke:#fff"/><path fill="#FDAC60" d="m287.99 69.34 5.62-4.72 1.13-.38 35.58 30.99-.05 18.61-8.44 6.08-.12-.01-43.29-32.87" data-idx="409" style="stroke:#fff"/><path fill="#6BBF63" d="m856.59 239.13 9.41.27 24.49 17.22 20.29 40.21-15.79-2.87" data-idx="411" style="stroke:#fff"/><path fill="#FFF5AF" d="m334.57 495.57 34.57 4.23 11.3 24.44-1.8 41.48-76.2-3.37-3.14-3.14-2.15-32.24" data-idx="413" style="stroke:#fff"/><path fill="#AD0826" d="M1512 396.11v103.87l-45.96-3.08-1.5-4.69-.73-16.63 28.73-81.4" data-idx="415" style="stroke:#fff"/><path fill="#FFF5AE" d="m518.1 223.41 42.35-30.95 1.65 85.71-1.79 1.32-35.91-22.78" data-idx="417" style="stroke:#fff"/><path fill="#C0E47B" d="m895.71 218.5-4.64 7.22L866 239.4l-9.41-.27-31.77-5.37 2.8-5.52" data-idx="419" style="stroke:#fff"/><path fill="#F4FAB0" d="m583.63 372.8 28.83 7.96 2.05 31.25-48.38 1.89 2.06-27.08" data-idx="421" style="stroke:#fff"/><path fill="#158F4C" d="m1168.41 494.27 31.35 23.82-4.99 37.08-50.37.75-26.33-16.45.95-26.25" data-idx="423" style="stroke:#fff"/><path fill="#108546" d="M1123.8 824h-109.1l15.58-28.56 87.81-30.73 1.39 5.21" data-idx="425" style="stroke:#fff"/><path fill="#C7E77F" d="m654.63 700.58 33.68-14.43 13.92 78.59-2.55 2.72-23.17 4.18-29.88-51.47" data-idx="427" style="stroke:#fff"/><path fill="#FEEB9E" d="m524.4 256.71 35.91 22.78-5.51 8.03-26.53 18.4-28.98-7.87-.72-.62" data-idx="429" style="stroke:#fff"/><path fill="#ED5D3C" d="M55.23 824H20.56l27.58-59.72 15.42 5.89" data-idx="431" style="stroke:#fff"/><path fill="#D3EC87" d="m780.3 682.57 1.07 5.29-11.22 39.82-19.64-31.71" data-idx="433" style="stroke:#fff"/><path fill="#FDC776" d="m214.2 315.66 6.2 12.92-34.45 23.83-1.93-31.81" data-idx="435" style="stroke:#fff"/><path fill="#C92327" d="m1313.4 242.52 17.2 15.56-1.38 17.84-23.95 1.62-21.44-10.68" data-idx="437" style="stroke:#fff"/><path fill="#E6F49C" d="m722.85 493.78 17.6-3.06 12.34 4.81-.43 2.98-22.18 23.04L659 542.17l-11.55-21.22" data-idx="439" style="stroke:#fff"/><path fill="#78C565" d="m919.77 616.2 11.57-9.2 53.56 32.92-23.23 34.36-40.71-16.02" data-idx="441" style="stroke:#fff"/><path fill="#F7864F" d="m112.19 750.95 30.18 43.11-21.95 9.08-24.1-19.19-5.67-13.27" data-idx="443" style="stroke:#fff"/><path fill="#269E53" d="M1126.96 0h20.43l-42.16 102.52-6.8 2.17-40.4-42.25-.91-15.46" data-idx="445" style="stroke:#fff"/><path fill="#FEDF8A" d="m241.08 625.13 1.08-.51 45.12 29.34-3.41 26.83-20.03 7.47-35.85-3.35-16.06-6.98" data-idx="447" style="stroke:#fff"/><path fill="#BE1826" d="m1307.29 348.96 15.07 23.17-29.8 23.56-29.23-1.89-4.36-23.37" data-idx="449" style="stroke:#fff"/><path fill="#F3FAAF" d="M661.32 824h-81.35l17.93-37.51 61.21 3.45" data-idx="451" style="stroke:#fff"/><path fill="#2B4D33" d="m1172.49 433.67 52.66 34.43 4.19 16.45-29.58 33.54-31.35-23.82-1.82-6.09" data-idx="453" style="stroke:#fff"/><path fill="#622A2D" d="m1187.63 329.79 29.57-18.56 26.11-2.39-1.06 22.79-40.38 62.04-5.12.51" data-idx="455" style="stroke:#fff"/><path fill="#C41E27" d="M1512 149.5v90.85l-37.92 4.65-15.87-14.94 16.64-69.25" data-idx="457" style="stroke:#fff"/><path fill="#ACDC6E" d="m659.37 83.51 3.46-9.98 5.86-4.75 50.62 16.25 9.11 25.39-66.29 21.47-.39-.15-4.65-6.08" data-idx="459" style="stroke:#fff"/><path fill="#CE2827" d="m1355.6 386.03.44.11 21.85 80.16-42.45 14.03-2.23-46.63" data-idx="461" style="stroke:#fff"/><path fill="#76C465" d="m863.43 612.84 11.21-2.8 19.25 8.87-1.01 35.78-27.02 10.76-12.15-38.12" data-idx="463" style="stroke:#fff"/><path fill="#219B52" d="m985.9 93.4 24.13-1.5 14.03 5.3 8.77 31.47-14.04 19.62-5.37 2.71-14.74-1.68" data-idx="465" style="stroke:#fff"/><path fill="#FECD7B" d="m378.07 141.24 15.2-7.82 23.45 24.82-11.14 54.36-38.3-41.56" data-idx="467" style="stroke:#fff"/><path fill="#FEE99B" d="m517.38 46.14 19.34-2.03.02.01 11.33 15.12-10.34 42.94-26.22-16.97" data-idx="469" style="stroke:#fff"/><path fill="#FEE593" d="M203.57 824h-51.23l-1.04-27.92 15.45-5.36 19.09 4.37" data-idx="471" style="stroke:#fff"/><path fill="#1F5434" d="m1289.03 608.94 3.42-.51 15.92 11.98 6.87 53.52-1.63.03-7.68-1.7-21.73-13.15" data-idx="473" style="stroke:#fff"/><path fill="#99D369" d="m825.87 387.26 36.75-3.67 5.15 36.33-52.91-4.1" data-idx="475" style="stroke:#fff"/><path fill="#17924D" d="m1042.88 445.41 10.7-2.05 57.71 12.28 2.84 10.16 2.41 41.28-16.34 1.26-53.19-35.84" data-idx="477" style="stroke:#fff"/><path fill="#B20C26" d="m1426.17 56.15 20.79 24.36-23.83 21.25-7.28-7.6" data-idx="479" style="stroke:#fff"/><path fill="#55B55F" d="m926.5 415.58 10.22-6.5.01 29.22" data-idx="481" style="stroke:#fff"/><path fill="#06743D" d="m1227.04 599.29 61.99 9.65-4.83 50.17-28.26 16.91-38.52-59.41" data-idx="483" style="stroke:#fff"/><path fill="#16904C" d="m976.75 483.72 23.38-8.72 6.9 41.99-.84 20.7-24.63-7.49" data-idx="485" style="stroke:#fff"/><path fill="#B7E075" d="M648.36 0h73.15l-49.46 42.25-19.75-19.92" data-idx="487" style="stroke:#fff"/><path fill="#B00A26" d="m1416.26 266.35 39.25 21.53.83 25.65-46.91-8.93-2.52-1.81" data-idx="489" style="stroke:#fff"/><path fill="#F26941" d="M0 512.67v-64.31l17.45-11.12 51.48-2.49 1.54.53-1.56 68.5-6.02 8.08-38.56 8.44" data-idx="491" style="stroke:#fff"/><path fill="#56322E" d="m1147.78 126.95 26.36 8.33 2.83 31.54-17.97 22.7-34.4-4.87" data-idx="493" style="stroke:#fff"/><path fill="#33A456" d="m861.79 291.05 33.2 2.91 15.79 2.87 11.4 6.56 7.78 7.75-10.92 23.05-13.24 12.06-24 10.06-30.83-43.94" data-idx="495" style="stroke:#fff"/><path fill="#A7D96B" d="m730.19 753.11 40.37-4.97 17.03 31.25-53.41 35.35-34.5-47.28 2.55-2.72 6.58-4.27" data-idx="497" style="stroke:#fff"/><path fill="#F57748" d="m75.23 302.12 11.86-.74 21.62 58.41-15.23 6.35-55.41-14.57" data-idx="499" style="stroke:#fff"/><path fill="#FEDA86" d="m423.5 206.88 15.95-6.03 39.97 13.53-25.54 55.54-48.76-36.71 4.75-13.16" data-idx="501" style="stroke:#fff"/><path fill="#56B55F" d="m1018.01 547.72 5.73-2.31 17.39 2.1 16.12 40.44-37.26 18.35-9.07-22.42" data-idx="503" style="stroke:#fff"/><path fill="#CB2527" d="M1512 69.96v79.54l-37.15 11.31-55.32-7.44 3.6-51.61 23.83-21.25 44.92-12.68" data-idx="505" style="stroke:#fff"/><path fill="#53342E" d="m1368.71 522.22 23.75-2.66 5.84 25.66-11.37 9.55-1.48-.69" data-idx="507" style="stroke:#fff"/><path fill="#A5D96A" d="m826.33 679.5 17.4 20.27 2.78 11.01-38.4 8.4-26.74-31.32-1.07-5.29.95-2.58" data-idx="509" style="stroke:#fff"/><path fill="#FFF7B1" d="m573.24 183.57 4.67-5.11 20.05 6.04 9.51 5.38 40.45 50.47-13.99 22.54-33.51 12.07-14.76-6.39" data-idx="511" style="stroke:#fff"/><path fill="#9ED669" d="m973.48 252.68 44.53.83 13.62 12.52-9.48 30.33-58.41 15.68-14.19-4.78" data-idx="513" style="stroke:#fff"/><path fill="#E5F49B" d="m718.05 470.5 22.4 20.22-17.6 3.06" data-idx="515" style="stroke:#fff"/><path fill="#FDC272" d="m321.71 119.91.12.01-26.88 62.31-3.46 3.14-36.18-24.41-1.45-18.77" data-idx="517" style="stroke:#fff"/><path fill="#FFF3AB" d="m572.33 305.62 31.91 6.35 4.05 10.88-24.18 12.4-7.68-2.73" data-idx="519" style="stroke:#fff"/><path fill="#4B382F" d="m1326.84 625.92 25.92.29-2.62 65.4-6.04-3.81" data-idx="521" style="stroke:#fff"/><path fill="#A00326" d="m1286.65 106.13 6.94 4.33 19.76 60.52-43.3 17.44-18.33-14.81" data-idx="523" style="stroke:#fff"/><path fill="#C92327" d="m1379.86 601.92 2.96-1.11 45.36 13.86 3.12 28.53-.38 1.22-39.58.24-20.04-29.04" data-idx="525" style="stroke:#fff"/><path fill="#FDB567" d="m361.2 684.56 6.1.57 14.34 31.4-.84 2.65-34.67 52.22-37.7-3.59-8.54-28.23 3.38-46.15" data-idx="527" style="stroke:#fff"/><path fill="#7EC866" d="m959.47 551.04 43.91 31.83-62.19 2.03.51-21.54" data-idx="529" style="stroke:#fff"/><path fill="#DFF294" d="m631.9 354.74 64.37 20.14 3.49 6.78-14.06 25.87-62.41 11.36-8.78-6.88-2.05-31.25" data-idx="531" style="stroke:#fff"/><path fill="#148D4A" d="M1014.7 824h-77.69l18.94-52.96 59.13-27.17 15.2 51.57" data-idx="533" style="stroke:#fff"/><path fill="#A9DA6C" d="m875.92 166.1 14.07 3.69 20.2 18.6-13.28 28.99-1.2 1.12-68.09 9.74.26-.91" data-idx="535" style="stroke:#fff"/><path fill="#FDB86A" d="m68.44 242.34 20 41.32-.09 16.76-1.26.96-11.86.74-5.47-7.21-4.26-49.99" data-idx="537" style="stroke:#fff"/><path fill="#0B7C41" d="m1305.27 277.54 23.95-1.62 10.82 5.03-4.12 13.83-19.65.64" data-idx="539" style="stroke:#fff"/><path fill="#A6D96A" d="m736.45 182.6 31.76 12.23 38.04 50.29-10.58 11.08-75.82-11.36-2.05-11.83" data-idx="541" style="stroke:#fff"/><path fill="#CDEA83" d="m647.92 240.35.74-.14 47.86 25.58-.53 4.76-23.26 42.81-10.29-2.02-28.51-48.45" data-idx="543" style="stroke:#fff"/><path fill="#C6E77F" d="m739.08 303.12 31.29 1.73 6.32 19.77-.27 28.7-27.89 31.17-48.77-2.83-3.49-6.78-3.31-34.44" data-idx="545" style="stroke:#fff"/><path fill="#D02927" d="M1314.45 29.47 1332.99.69l29.22 63.39-5.06 4.79-36.55-12.33" data-idx="547" style="stroke:#fff"/><path fill="#C6E77F" d="m840.8 339.4 33.03 21.79-11.21 22.4-36.75 3.67-25.89-27.42" data-idx="549" style="stroke:#fff"/><path fill="#FDC574" d="m339.82 123.74 38.25 17.5-10.79 29.8-10.39 5.39-21.58-7.61" data-idx="551" style="stroke:#fff"/><path fill="#F1F9AB" d="M534.15 824h-58.77l1.99-45.92 27.13-29.54 19.74-7.37 20.35 7.1" data-idx="553" style="stroke:#fff"/><path fill="#98D368" d="m604.55 104.02 54.82-20.51-2.28 42.15-64.76 12.97" data-idx="555" style="stroke:#fff"/><path fill="#FCA65D" d="m215.78 379.29 17.34 20.66-3.69 8.83-4.87 5.7-10.48 4.43L197 408.47l-19.13-34.17 5.19-5.71" data-idx="557" style="stroke:#fff"/><path fill="#3F4131" d="m1353.93 322.62 5.96 4.04-15.54 49.48-21.99-4.01-15.07-23.17-1.95-4.37" data-idx="559" style="stroke:#fff"/><path fill="#B71126" d="m1446.82 597.41 34.22-13.73 29.6 8.31-31.33 48.92-48.01 2.29-3.12-28.53" data-idx="561" style="stroke:#fff"/><path fill="#FEE99A" d="m414.43 663.62 20.44 15.71 11.55 25.96-11.74 10.5-53.04.74-14.34-31.4 7.6-15.97" data-idx="563" style="stroke:#fff"/><path fill="#BEE37A" d="m913 111.79 29.19-16.95 14.13 43.26-42.01-6.89-.63-1.1" data-idx="565" style="stroke:#fff"/><path fill="#D62F27" d="m1431.3 643.2 48.01-2.29.29 5.37-10.02 31.03-34.38-1.35-4.28-31.54" data-idx="567" style="stroke:#fff"/><path fill="#65292D" d="m1322.36 372.13 21.99 4.01 11.25 9.89-22.39 47.67-35.85-17.37-4.8-20.64" data-idx="569" style="stroke:#fff"/><path fill="#FDB768" d="M290.51 0h85.03l-80.18 63.16" data-idx="571" style="stroke:#fff"/><path fill="#08773F" d="m1242.25 331.63 16.72 38.8 4.36 23.37-15.84 12.92-5.75 3.33-39.87-16.38" data-idx="573" style="stroke:#fff"/><path fill="#F4FAB0" d="m649.62 149.26 18.93 38.19-6.97 5.81-53.68-3.4 5.43-14.28" data-idx="575" style="stroke:#fff"/><path fill="#FDB466" d="m191.01 48.59.53 29.69-25.12 7.83-22.73-25.16" data-idx="577" style="stroke:#fff"/><path fill="#95D268" d="m698.76 443.2 73.75 22.95-1.71 13.23-18.01 16.15-12.34-4.81-22.4-20.22-14.8-15.19" data-idx="579" style="stroke:#fff"/><path fill="#FFFAB7" d="m540.57 674.81 44.13 24.1 3.6 32.33-8.49 14.88-35.22 2.15-20.35-7.1-6.84-42.02.02-1.02" data-idx="581" style="stroke:#fff"/><path fill="#3BA858" d="m863.33 471.18 4.6-9.82 2.46-2.64 49.52 11.53 2.07 9.05-42.23 55.22-.44-.72-15.68-50.07" data-idx="583" style="stroke:#fff"/><path fill="#EEF8A8" d="m500.09 132.26 52.33-5.17 6.91 3.79L576.36 152l1.55 26.46-4.67 5.11-8.38 4.16-29.32-6.89" data-idx="585" style="stroke:#fff"/><path fill="#FEE99A" d="m434.68 715.79 14.14 43.13-28.37 21.07-39.65-60.81.84-2.65" data-idx="587" style="stroke:#fff"/><path fill="#AC0726" d="m1263.33 393.8 29.23 1.89 4.8 20.64-8.31 23.73-41.56-33.34" data-idx="589" style="stroke:#fff"/><path fill="#08773F" d="m964.14 210.66 55.58-7.75 2.94 2.78-4.65 47.82-44.53-.83" data-idx="591" style="stroke:#fff"/><path fill="#CDEA83" d="m798.05 578.41 9.71-3.1 55.67 37.53-9.72 14.49-29.04 17.03-40.15-30.19" data-idx="593" style="stroke:#fff"/><path fill="#65282D" d="m1406.91 302.79 2.52 1.81-6.85 20.93-19.77-9.16.99-1.72" data-idx="595" style="stroke:#fff"/><path fill="#48AE5B" d="m1015.27 414.69 21.56 28.13-36.7 32.18-23.38 8.72-16.98-3.44-18.9-21.04.89-4.71.31-1.07" data-idx="597" style="stroke:#fff"/><path fill="#FEE796" d="m554.8 287.52 17.53 18.1 4.1 26.9-36.3-1.39-11.86-25.21" data-idx="599" style="stroke:#fff"/><path fill="#FEE593" d="m191.01 48.59 22.83-39.24 1.7 2.33 17.28 54.06-5.63 9.84-21.07 12.98-14.58-10.28" data-idx="601" style="stroke:#fff"/><path fill="#67BE63" d="M956.76 0h10.88l31.19 47.12-5.92 9.61-29.93 21.72-15.71.03-10.1-15.34" data-idx="603" style="stroke:#fff"/><path fill="#52B35E" d="M1216.91 824h-93.11l-4.32-54.08 94.01 30.53" data-idx="605" style="stroke:#fff"/><path fill="#FEE796" d="m378.18 438.42 27.47 11.96L374.87 500l-5.73-.2-34.57-4.23-1.16-34.04" data-idx="607" style="stroke:#fff"/><path fill="#FA9A58" d="M127.93 166.08 171 184.76l17.91 14.53 8.17 30.78-32.93 34.64-20.55 3.8-39.18-25.94-18.64-21.66 2.78-31.85" data-idx="609" style="stroke:#fff"/><path fill="#AADB6D" d="m566.13 413.9 48.38-1.89 8.78 6.88-2.8 69.38-2.11 6.02-89.36-17.74 19.32-44.24" data-idx="611" style="stroke:#fff"/><path fill="#E2F398" d="m572.76 33.01 1.1-1.69 32.12-19.65 9.6 13.99-1.99 22.6-9.68 17.12-6.8 3.76-13.09-.93" data-idx="613" style="stroke:#fff"/><path fill="#128A48" d="m1080.2 313.18 8.53-.92 22.39 53.65-11.08 6.18-33.63-15.22" data-idx="615" style="stroke:#fff"/><path fill="#FEDA86" d="m303.05 430.96 21.12 17.63 9.24 12.94 1.16 34.04-37.42 31.4-37.98-30.37.91-10.34 2.55-11.04" data-idx="617" style="stroke:#fff"/><path fill="#4EB15D" d="m1050.01 503.15 23.53 25.12 7.73 18.51-40.14.73-17.39-2.1" data-idx="619" style="stroke:#fff"/><path fill="#6ABF63" d="m1022.66 205.69 5.48 1.21 12.18 7.25 20.35 32.37-9.83 10.16-19.21 9.35-13.62-12.52" data-idx="621" style="stroke:#fff"/><path fill="#C72127" d="m1402.58 325.53 6.85-20.93 46.91 8.93 7.94 17.41.05 49.53-38.81 9.43-5.8-2.54" data-idx="623" style="stroke:#fff"/><path fill="#C4E67D" d="m625.11 503.65 14.66 9.68 7.68 7.62L659 542.17l.85 4.22-36.57 51.14-47.75-30.79" data-idx="625" style="stroke:#fff"/><path fill="#FFFAB6" d="m511.51 85.21 26.22 16.97 14.69 24.91-52.33 5.17-19.46-3.09-9.38-7.02-4.05-11.26" data-idx="627" style="stroke:#fff"/><path fill="#E1F296" d="M621.28 0h27.08l3.94 22.33-16.79.3" data-idx="629" style="stroke:#fff"/><path fill="#55B55F" d="m1011.31 631.23 7.77-10.4 45 13.75 14.99 14.95-33.51 41.08-1.75.14" data-idx="631" style="stroke:#fff"/><path fill="#67272C" d="m1308.37 620.41 18.47 5.51 17.26 61.88-15.26-5.43-13.6-8.44" data-idx="633" style="stroke:#fff"/><path fill="#B40E26" d="m1428.72 540.81 19.36-18.57 32.96 61.44-34.22 13.73-16.82-34.03" data-idx="635" style="stroke:#fff"/><path fill="#314932" d="m1235.25 131.36 47.58-28.6 1.95.93 1.87 2.44-34.93 67.48-27.08.53-3.96-5.12 1.95-22.43" data-idx="637" style="stroke:#fff"/><path fill="#A50026" d="m1430 563.38 16.82 34.03-18.64 17.26-45.36-13.86 4.22-19.32" data-idx="639" style="stroke:#fff"/><path fill="#79C565" d="m813.16 243.5 11.66-9.74 31.77 5.37 38.4 54.83-33.2-2.91" data-idx="641" style="stroke:#fff"/><path fill="#E4F39A" d="m707.54 691.05 27.95 1.87-5.3 60.19-21.38 7.36" data-idx="643" style="stroke:#fff"/><path fill="#37A657" d="m1040.32 214.15 36.87-22.95 28.17 37.91-.78 10.01-.18.2-43.73 7.2" data-idx="645" style="stroke:#fff"/><path fill="#FBA15B" d="m378.64 565.72 14.63 11.06-36.34 41.6-36.78-12.88-17.71-43.15" data-idx="647" style="stroke:#fff"/><path fill="#F67B49" d="m104.42 242.57 39.18 25.94-16.63 36.77-38.62-4.86.09-16.76" data-idx="649" style="stroke:#fff"/><path fill="#7BC665" d="M937.01 824h-10.3l-26.08-56.73-1.92-41.17 48.29 3.13 8.95 41.81" data-idx="651" style="stroke:#fff"/><path fill="#FDB366" d="m179.7 318.66 4.32 1.94 1.93 31.81-2.89 16.18-5.19 5.71-40.8-1.25-16.48-14.93 14.06-24.54" data-idx="653" style="stroke:#fff"/><path fill="#FDB768" d="m456.35 273.48 14.93 11.64-33.14 58.2-25.87 6.65-8.04-40.59" data-idx="655" style="stroke:#fff"/><path fill="#99D369" d="M721.51 0h11.65l5.45 52.09-19.3 32.94-50.62-16.25 3.36-26.53" data-idx="657" style="stroke:#fff"/><path fill="#FFFFBE" d="m489.68 350.27 31.56 10.4-6.57 17.66-39.13 7.33-2.85-20.31" data-idx="659" style="stroke:#fff"/><path fill="#364631" d="M1333.3 0h27.24l28.61 35.86-12.01 18.25-14.93 9.97L1332.99.69" data-idx="661" style="stroke:#fff"/><path fill="#C8E880" d="m743.32 128.55 57.83-8.11-2.15 16.75-5.27 16.05-25.52 41.59-31.76-12.23-8.84-12.25" data-idx="663" style="stroke:#fff"/><path fill="#FEE08B" d="m419.75 613.64 5.47 27.38-10.79 22.6-39.53 5.54.1-17.22" data-idx="665" style="stroke:#fff"/><path fill="#61BA62" d="M1029.62 0h97.34l-69.84 46.98-22.01-22.28" data-idx="667" style="stroke:#fff"/><path fill="#ACDC6E" d="M737.69 824h-76.37l-2.21-34.06 17.4-18.3 23.17-4.18 34.5 47.28" data-idx="669" style="stroke:#fff"/><path fill="#85CB66" d="m794.87 258.61 20.47 56.36-38.65 9.65-6.32-19.77" data-idx="671" style="stroke:#fff"/><path fill="#84CA66" d="m782.63 566.11 15.42 12.3-13.53 35.76-24.53 17.52-54.55-16.09-1.71-23.7 5.11-4.85" data-idx="673" style="stroke:#fff"/><path fill="#E95739" d="m131.47 434.99-12.29 23.88-22.27 36.72-28 8.19 1.56-68.5 16.57-11.3" data-idx="675" style="stroke:#fff"/><path fill="#6FC164" d="m954.95 392.75 54.68 6.11 5.64 15.83-73.2 38.77-5.34-15.16-.01-29.22" data-idx="677" style="stroke:#fff"/><path fill="#F16740" d="M59.26 824h-4.03l8.33-53.83 12.73 1.63 12.4 47.54-.13 3.86" data-idx="679" style="stroke:#fff"/><path fill="#FBA05B" d="M377.2 824H264.11l6.16-28.13 38.16-28.06 37.7 3.59" data-idx="681" style="stroke:#fff"/><path fill="#FEC977" d="M264.11 824h-60.54l-17.73-28.91 21.47-35.15 29.89 2 33.07 33.93" data-idx="683" style="stroke:#fff"/><path fill="#314932" d="m1305.93 672.26 7.68 1.7-7.33 2.7" data-idx="685" style="stroke:#fff"/><path fill="#D62F27" d="m1424.12 395.43 33.32 72.48-59.65-20.27" data-idx="687" style="stroke:#fff"/><path fill="#B71126" d="m1293.59 110.46 40.3 1.16 11.8 72.55-6.13 4.63-26.21-17.82" data-idx="689" style="stroke:#fff"/><path fill="#7DC766" d="m891.07 225.72-.58 30.9L866 239.4" data-idx="691" style="stroke:#fff"/><path fill="#A8DA6B" d="M823.68 824h-85.99l-3.51-9.26 53.41-35.35 35.06 39.79" data-idx="693" style="stroke:#fff"/><path fill="#FCA95F" d="m197.08 230.07 14.18 9.54 23.39 44.86-20.45 31.19-30.18 4.94-4.32-1.94-15.55-53.95" data-idx="695" style="stroke:#fff"/><path fill="#5BB860" d="m905.8 346.25 13.24-12.06 35.91 58.56-18.23 16.33-10.22 6.5-12.27-2.61" data-idx="697" style="stroke:#fff"/><path fill="#85CB66" d="m917.96 676.53 37.79 11.44 6.43 17.18L947 729.23l-48.29-3.13-9.38-9.75" data-idx="699" style="stroke:#fff"/><path fill="#F7824D" d="m261.74 579.53-19.58 45.09-1.08.51-43.63-34.48 2.38-8.98 11.74-11.6" data-idx="701" style="stroke:#fff"/><path fill="#E3F399" d="m597.11 69.14 6.8-3.76 10.51-4.26 48.41 12.41-3.46 9.98-54.82 20.51" data-idx="703" style="stroke:#fff"/><path fill="#108647" d="m1097.64 379.67 2.4-7.58 11.08-6.18 25.91-2.73 34.81 43.04-5.5 18.24-38.85 17.97" data-idx="705" style="stroke:#fff"/><path fill="#8B1029" d="m1227.38 41.65 69.65-15.86 17.42 3.68 6.15 27.07-35.82 47.15-1.95-.93-38.55-35.42" data-idx="707" style="stroke:#fff"/><path fill="#EBF7A4" d="m510.51 571.69 13.12-8.76 22.76 12.16 2.59 5.33-5.67 49.62-12.19 16.31-12.1-5.03-3.26-2.8" data-idx="709" style="stroke:#fff"/><path fill="#FFF1A8" d="m585.67 619.87 29.71 17.06-76.21 25.33-8.05-15.91 12.19-16.31" data-idx="711" style="stroke:#fff"/><path fill="#CF2927" d="M1512 704.67v40.1l-61.93 5.05-1.66-7.78 50.07-40.55" data-idx="713" style="stroke:#fff"/><path fill="#C51E27" d="m1289.05 440.06 8.31-23.73 35.85 17.37 2.23 46.63-9.04 9.33-6.48-.34-17.82-7.36-13.88-29.43" data-idx="715" style="stroke:#fff"/><path fill="#FED380" d="m374.87 500 7.93 9.85-2.36 14.39-11.3-24.44" data-idx="717" style="stroke:#fff"/><path fill="#E4F39A" d="M733.16 0h53.6l-15.88 61.59-32.27-9.5" data-idx="719" style="stroke:#fff"/><path fill="#FDAC60" d="m116.79 123.69 11.79 24.5-.65 17.89-39.37 22.98-42.05-17.02-13.07-58.16" data-idx="721" style="stroke:#fff"/><path fill="#235233" d="m1388.99 470.98 75.55 21.23 1.5 4.69-17.71 22-40.38-13.96" data-idx="723" style="stroke:#fff"/><path fill="#DA372A" d="m1333.89 111.62 20.34-6.45 8.45 5.67 40.53 48.46-57.52 24.87" data-idx="725" style="stroke:#fff"/><path fill="#AFDD70" d="m863.63 483.73 15.68 50.07-31.41.76-29.72-26.84" data-idx="727" style="stroke:#fff"/><path fill="#B0DD70" d="m646.63 720.17 29.88 51.47-17.4 18.3-61.21-3.45-18.09-40.37 8.49-14.88" data-idx="729" style="stroke:#fff"/><path fill="#1D9951" d="m879.31 533.8.44.72 1.19 2.46-.8 4.96-11.24 4.11-25.85-6.03 4.85-5.46" data-idx="731" style="stroke:#fff"/><path fill="#F57547" d="m104.42 552.66 17.84 6.54-4.36 35.34-19.56 37.84-10.55-1.4-14.73-31.15" data-idx="733" style="stroke:#fff"/><path fill="#A4D86A" d="m865.86 665.45 27.02-10.76 24.13 18.86.95 2.98-28.63 39.82-40.39-3.25-2.43-2.32-2.78-11.01" data-idx="735" style="stroke:#fff"/><path fill="#FEE593" d="m283.87 680.79 19.4 12.64-3.38 46.15-31.14-17.73-4.91-33.59" data-idx="737" style="stroke:#fff"/><path fill="#423E30" d="m1104.4 239.32.18-.2 51.23 11.65-.15 24.27-21.73 30.56-22.48-7.97" data-idx="739" style="stroke:#fff"/><path fill="#80C866" d="M843.71 0h113.05l-19.59 63.14-81.25-10.77" data-idx="741" style="stroke:#fff"/><path fill="#A9DA6C" d="m703.25 455.31 14.8 15.19 4.8 23.28-75.4 27.17-7.68-7.62" data-idx="743" style="stroke:#fff"/><path fill="#E3F398" d="m685.7 407.53 1.27 14.95-66.48 65.79 2.8-69.38" data-idx="745" style="stroke:#fff"/><path fill="#EC5B3B" d="M0 731.43v-13.77l69.68-20.52 19.14 25.5" data-idx="747" style="stroke:#fff"/><path fill="#DF412F" d="M0 281.14v-5.79l65.5-30.43 4.26 49.99" data-idx="749" style="stroke:#fff"/><path fill="#ECF7A5" d="m713.42 253.85 13.47 34.63-30.9-17.93.53-4.76" data-idx="751" style="stroke:#fff"/><path fill="#E0422F" d="m90.65 770.68 5.67 13.27-7.63 35.39-12.4-47.54" data-idx="753" style="stroke:#fff"/><path fill="#E95739" d="m62.89 511.86 41.53 40.8-31.36 47.17-24.13-8.86-17.57-20.72-7.03-49.95" data-idx="755" style="stroke:#fff"/><path fill="#6CC064" d="M786.76 0h56.95l12.21 52.37-15.2 40.99-9.11 11.12-14.31 3.87-46.42-46.76" data-idx="757" style="stroke:#fff"/><path fill="#FFF2AA" d="m540.13 331.13 36.3 1.39 7.68 2.73-.48 37.55-15.44 14.02-33.17-35.11" data-idx="759" style="stroke:#fff"/><path fill="#6EC064" d="m768.21 194.83 25.52-41.59 10.27 5.35 23.96 46.08-.08 22.66-.26.91-2.8 5.52-11.66 9.74-6.91 1.62" data-idx="761" style="stroke:#fff"/><path fill="#70C164" d="M967.64 0h61.98l5.49 24.7-28.08 19.6-8.2 2.82" data-idx="763" style="stroke:#fff"/><path fill="#FDB667" d="m211.93 677.93 16.06 6.98 11.13 70.27-1.92 6.76-29.89-2-14.29-14.73-5.29-12.94-6.61-49.56" data-idx="765" style="stroke:#fff"/><path fill="#195934" d="m1078.88 169.98 15.67-9.58 20.68 16.89 7.16 7.76-17.03 44.06-28.17-37.91" data-idx="767" style="stroke:#fff"/><path fill="#FEE390" d="m232.82 65.74 55.17 3.6-9.57 17.7-20.29 24.11-30.94-35.57" data-idx="769" style="stroke:#fff"/><path fill="#E64F35" d="m136.01 556.76 34.34 56.62-1.69 3.57-50.76-22.41 4.36-35.34 12.22-3.5" data-idx="771" style="stroke:#fff"/><path fill="#DC3A2C" d="M1512 744.77v74.16l-69.63-46.95 7.7-22.16" data-idx="773" style="stroke:#fff"/><path fill="#DA3529" d="M1512 304.07v92.04l-19.46-1.93-28.21-13.71-.05-49.53" data-idx="775" style="stroke:#fff"/><path fill="#7AC665" d="m873.83 361.19 7.97-4.88 24-10.06 8.43 66.72-27.23 13.9-12.32 4.96-6.91-11.91-5.15-36.33" data-idx="777" style="stroke:#fff"/><path fill="#FED582" d="m220.4 328.58 20.52 24.93-25.14 25.78-32.72-10.7 2.89-16.18" data-idx="779" style="stroke:#fff"/><path fill="#58B65F" d="m968.42 156.1 30.26-6.78 14.74 1.68 6.3 51.91-55.58 7.75-.1-.1-12-25.14" data-idx="781" style="stroke:#fff"/><path fill="#AC0726" d="M1196.89 0h89.88l10.26 25.79-69.65 15.86-21.09-17.5" data-idx="783" style="stroke:#fff"/><path fill="#225334" d="m1144.74 124.62 3.04 2.33-23.18 57.7-2.21.4-7.16-7.76" data-idx="785" style="stroke:#fff"/><path fill="#F46E44" d="M0 187.76V72.65l27.51 23.26 5.93 17.97 13.07 58.16" data-idx="787" style="stroke:#fff"/><path fill="#9ED569" d="m863.33 471.18.3 12.55-45.45 23.99-3.84.04-22.86-22.2" data-idx="789" style="stroke:#fff"/><path fill="#145B35" d="m1243.31 308.84.99-.92 48.01 21.1 13.03 15.57 1.95 4.37-48.32 21.47-16.72-38.8" data-idx="791" style="stroke:#fff"/><path fill="#0C7E43" d="m1251.48 491.5 50.62-9.54 17.82 7.36-36.79 48.61-23.06 6.76" data-idx="793" style="stroke:#fff"/><path fill="#A5D96A" d="m686.97 422.48 11.79 20.72 4.49 12.11-63.48 58.02-14.66-9.68-6.73-9.36 2.11-6.02" data-idx="795" style="stroke:#fff"/><path fill="#16914C" d="m1043.81 690.75 1.75-.14 75.59 58.59-.1.2-103.91-12.38-2.87-13.75" data-idx="797" style="stroke:#fff"/><path fill="#0F8446" d="m1315.91 576.61 10.5-7.13 22.09 7.37 31.36 25.07-8.56 13.7-18.54 10.59-25.92-.29-18.47-5.51-15.92-11.98" data-idx="799" style="stroke:#fff"/><path fill="#FFF4AD" d="m517.42 698.13-.02 1.02-45.89-12.74 5.51-7.87" data-idx="801" style="stroke:#fff"/><path fill="#FDB264" d="m364.11 226.88 40.05 6.77L383 277.66l-55.15-25.49" data-idx="803" style="stroke:#fff"/><path fill="#8C1029" d="m1199.76 518.09 29.58-33.54 22.14 6.95 8.59 53.19-34.91 47.74-30.39-37.26" data-idx="805" style="stroke:#fff"/><path fill="#CCE983" d="m692.66 628.84 12.78-13.24 54.55 16.09 1.91 11.93-21.77 48.27-4.64 1.03-27.95-1.87-16.3-7.54" data-idx="807" style="stroke:#fff"/><path fill="#FFFDBC" d="m473.03 656.33-.01 1.78-38.15 21.22-20.44-15.71 10.79-22.6" data-idx="809" style="stroke:#fff"/><path fill="#B30D26" d="m1377.89 466.3 6.45-.33 4.65 5.01 18.96 33.96-15.49 14.62-23.75 2.66-35.49-17.94-6.82-14.62 9.04-9.33" data-idx="811" style="stroke:#fff"/><path fill="#8B1029" d="m1398.3 545.22 30.42-4.41 1.28 22.57-42.96 18.11-.11-26.72" data-idx="813" style="stroke:#fff"/><path fill="#C7E77F" d="m730.18 521.55-21.34 65.5-5.11 4.85-43.88-45.51-.85-4.22" data-idx="815" style="stroke:#fff"/><path fill="#D93529" d="M1512 0v69.96l-20.12-2.13-69.07-43.2L1428.08 0" data-idx="817" style="stroke:#fff"/><path fill="#15904C" d="m1038.25 311.09 32.65-1.2 9.3 3.29-13.79 43.69-29.92 3.51" data-idx="819" style="stroke:#fff"/><path fill="#DCF08F" d="m695.99 270.55 30.9 17.93 12.19 14.64-46.12 37.32-20.23-27.08" data-idx="821" style="stroke:#fff"/><path fill="#A7DA6B" d="m814.86 415.82 52.91 4.1 6.91 11.91-4.29 26.89-2.46 2.64-73.97-29.38" data-idx="823" style="stroke:#fff"/><path fill="#F2FAAE" d="m584.11 335.25 24.18-12.4 16.31 7.36 7.3 24.53-19.44 26.02-28.83-7.96" data-idx="825" style="stroke:#fff"/><path fill="#026737" d="m1093.02 112.9 5.41-8.21 6.8-2.17 22.48 4.9 17.03 17.2-29.51 52.67-20.68-16.89" data-idx="827" style="stroke:#fff"/><path fill="#C41E27" d="M1512 287.14v16.93l-47.72 26.87-7.94-17.41-.83-25.65 15.4-16.49 28.02 4.94" data-idx="829" style="stroke:#fff"/><path fill="#E1F295" d="m471.28 285.12 3.41.43 23.88 11.88.72.62-9.61 52.22-16.99 15.08-34.55-22.03" data-idx="831" style="stroke:#fff"/><path fill="#F46C43" d="M0 448.36V335.85l33.67 16.07 1.89 31.22-18.11 54.1" data-idx="833" style="stroke:#fff"/><path fill="#F57748" d="m126.97 305.28 7.68 28.3-14.06 24.54-11.88 1.67-21.62-58.41 1.26-.96" data-idx="835" style="stroke:#fff"/><path fill="#F57647" d="M0 824v-90.64l48.14 30.92L20.56 824" data-idx="837" style="stroke:#fff"/><path fill="#CE2727" d="M1512 499.98v91.83l-1.36.18-29.6-8.31-32.96-61.44.25-3.34 17.71-22" data-idx="839" style="stroke:#fff"/><path fill="#FECD7B" d="m393.27 576.78 40.49 1.53-14.01 35.33-44.75 38.3-18.07-33.56" data-idx="841" style="stroke:#fff"/><path fill="#C92227" d="M1351.83 824h-4.09l-3.6-10.78 82.03-101 22.24 29.82 1.66 7.78-7.7 22.16" data-idx="843" style="stroke:#fff"/><path fill="#FEE18C" d="m293.96 193.91 52.83 9.52 17.32 23.45-36.26 25.29-18.51 5.54-19.68-41.89" data-idx="845" style="stroke:#fff"/><path fill="#632A2D" d="m1353.45 695.71 14.03-3.73 54.64 5.41 4.05 14.83-82.03 101-13.06-25.81-1.55-5.37" data-idx="847" style="stroke:#fff"/><path fill="#8CCE67" d="m868.9 546.05 11.24-4.11 4.37 9.62 1.51 7.05-11.38 51.43-11.21 2.8-55.67-37.53 2.1-2.26" data-idx="849" style="stroke:#fff"/><path fill="#DDF191" d="m692.66 628.84-1.42 54.67-2.93 2.64-33.68 14.43-39.14-49.78.32-13.72 5.21-4.7" data-idx="851" style="stroke:#fff"/><path fill="#FEDA86" d="m446.42 705.29 9.64-2.96 48.44 46.21-27.13 29.54-28.55-19.16-14.14-43.13" data-idx="853" style="stroke:#fff"/><path fill="#FFFFBF" d="m403.43 40.18 20.98 18.11 5.87 20.2-32.42 43.74-35.66-42.35" data-idx="855" style="stroke:#fff"/><path fill="#88CC67" d="m662.13 131.89 66.29-21.47 14.9 18.13-15.71 41.8-19.98 3.32-7.62-1.44" data-idx="857" style="stroke:#fff"/><path fill="#C82227" d="m1419.36 233.9 38.85-3.84 15.87 14.94-3.17 26.39-15.4 16.49-39.25-21.53-8.11-15.07" data-idx="859" style="stroke:#fff"/><path fill="#FDBF6F" d="m206.17 435.68 53.91 50.58-.91 10.34-7.3 1.19-73.05-19.2-.63-5.32" data-idx="861" style="stroke:#fff"/><path fill="#118747" d="m1255.94 676.02 28.26-16.91 21.73 13.15.35 4.4-46.35 46-3.34-1.46" data-idx="863" style="stroke:#fff"/><path fill="#F67E4B" d="m284.37 346.65 18.77 28.13-4.72 10.38-61.14 10.28 5.7-40.49" data-idx="865" style="stroke:#fff"/><path fill="#FFF0A5" d="M384.45 0h105.66l-1.29 28.47-64.41 29.82-20.98-18.11" data-idx="867" style="stroke:#fff"/><path fill="#8CCE67" d="m1121.05 749.4-2.96 15.31-87.81 30.73-15.2-51.57 2.06-6.85" data-idx="869" style="stroke:#fff"/><path fill="#FDC574" d="m480.63 129.17 19.46 3.09 35.45 48.58-47.52 6.17-2.78-3.06" data-idx="871" style="stroke:#fff"/><path fill="#F67848" d="m68.93 434.75-51.48 2.49 18.11-54.1" data-idx="873" style="stroke:#fff"/><path fill="#FEEC9F" d="m479.42 214.38 7.27-2.54 24.52 12.41-36.52 61.3-3.41-.43-14.93-11.64-2.47-3.56" data-idx="875" style="stroke:#fff"/><path fill="#D3EC87" d="m815.34 314.97 22.72 9.97 2.74 14.46-40.82 20.44-23.56-6.52.27-28.7" data-idx="877" style="stroke:#fff"/><path fill="#1B9950" d="m824.67 644.36 29.04-17.03 12.15 38.12-22.13 34.32-17.4-20.27" data-idx="879" style="stroke:#fff"/><path fill="#D62F27" d="M1512 240.35v7.21l-13.07 28.77-28.02-4.94 3.17-26.39" data-idx="881" style="stroke:#fff"/><path fill="#32A456" d="m1047.03 473.46-.02-.96 53.19 35.84-26.66 19.93-23.53-25.12" data-idx="883" style="stroke:#fff"/><path fill="#F16640" d="m85.78 220.91 18.64 21.66-15.98 41.09-20-41.32" data-idx="885" style="stroke:#fff"/><path fill="#FDBD6E" d="m143.44 436.37 34.75 36.9.63 5.32-.05.09-25.36 24.34-12.07-1.98-22.16-42.17 12.29-23.88 7.39-1.16" data-idx="887" style="stroke:#fff"/><path fill="#B7E075" d="m713.42 253.85 6.43-9.01 75.82 11.36-.8 2.41-24.5 46.24-31.29-1.73-12.19-14.64" data-idx="889" style="stroke:#fff"/><path fill="#BA1426" d="m1362.68 110.84 52.21-17.39.96.71 7.28 7.6-3.6 51.61-12.91 6.31-3.41-.38" data-idx="891" style="stroke:#fff"/><path fill="#F8884F" d="m330.32 95.23 31.88-15.35 35.66 42.35-4.59 11.19-15.2 7.82-38.25-17.5-9.55-9.9" data-idx="893" style="stroke:#fff"/><path fill="#D3EC87" d="m562.1 278.17 23.56-9.6 14.76 6.39 3.82 37.01-31.91-6.35-17.53-18.1 5.51-8.03" data-idx="895" style="stroke:#fff"/><path fill="#7EC866" d="m838.06 324.94 12.91-12.57 30.83 43.94-7.97 4.88-33.03-21.79" data-idx="897" style="stroke:#fff"/><path fill="#FDBB6C" d="M490.11 0h52.95l-6.34 44.11-19.34 2.03-28.56-17.67" data-idx="899" style="stroke:#fff"/><path fill="#108647" d="m1244.28 67.34 38.55 35.42-47.58 28.6-19.39-26.67" data-idx="901" style="stroke:#fff"/><path fill="#D5ED88" d="M543.06 0h43.04l-12.24 31.32-1.1 1.69-36.02 11.11-.02-.01" data-idx="903" style="stroke:#fff"/><path fill="#FDFEBD" d="m308.22 633.62 52.98 50.94-57.93 8.87-19.4-12.64 3.41-26.83" data-idx="905" style="stroke:#fff"/><path fill="#E14531" d="m207.94 546.1 3.63 23.97-11.74 11.6-19.51-12.13" data-idx="907" style="stroke:#fff"/><path fill="#D12A27" d="m1356.04 386.14 60.82.4 2.86.82 5.8 2.54-1.4 5.53-26.33 52.21-13.45 18.33-6.45.33" data-idx="909" style="stroke:#fff"/><path fill="#31A356" d="m1114.66 540.63 3.41-1.16 26.33 16.45-11.7 57.74-26.86-22.13" data-idx="911" style="stroke:#fff"/><path fill="#F57446" d="m119.18 458.87 22.16 42.17-44.43-5.45" data-idx="913" style="stroke:#fff"/><path fill="#D0EB85" d="m615.38 636.93.43.15-.32 13.72-30.79 48.11-44.13-24.1-1.4-12.55" data-idx="915" style="stroke:#fff"/><path fill="#FDAD61" d="M152.34 824h-41.93l10.01-20.86 21.95-9.08 8.93 2.02" data-idx="917" style="stroke:#fff"/><path fill="#FEEDA1" d="m473.02 658.11 3.95 15.24.05 5.19-5.51 7.87-15.45 15.92-9.64 2.96-11.55-25.96" data-idx="919" style="stroke:#fff"/><path fill="#7DC765" d="m719.31 85.03 19.3-32.94 32.27 9.5 46.42 46.76-16.15 12.09-57.83 8.11-14.9-18.13" data-idx="921" style="stroke:#fff"/><path fill="#FDAD60" d="m197.84 529.7 10.1 11v5.4l-27.62 23.44-44.31-12.78-1.53-1.06 15.39-31.74" data-idx="923" style="stroke:#fff"/><path fill="#09783F" d="m1155.13 714.95 48.48 20.44 13.83 43.85-3.95 21.21-94.01-30.53-1.39-5.21 2.96-15.31.1-.2" data-idx="925" style="stroke:#fff"/><path fill="#036D3A" d="m1082.7 547.64 31.96-7.01-8.82 50.9-31.88-5.64-1.57-2.49" data-idx="927" style="stroke:#fff"/><path fill="#1A9850" d="m1032.83 128.67 60.19-15.77 1.53 47.5-15.67 9.58-29.93-4.3-30.16-17.39" data-idx="929" style="stroke:#fff"/><path fill="#FEE797" d="m515.76 638.52 3.26 2.8-42.05 32.03-3.95-15.24.01-1.78 1.4-4.01" data-idx="931" style="stroke:#fff"/><path fill="#5F2C2D" d="m1359.89 326.66 21.14-8.09 35.83 67.97-60.82-.4-.44-.11-11.25-9.89" data-idx="933" style="stroke:#fff"/><path fill="#205434" d="m1319.92 489.32 6.48.34 6.82 14.62-6.81 65.2-10.5 7.13-32.78-38.68" data-idx="935" style="stroke:#fff"/><path fill="#FB9F5A" d="m143.6 268.51 20.55-3.8 15.55 53.95-45.05 14.92-7.68-28.3" data-idx="937" style="stroke:#fff"/><path fill="#D4ED88" d="m592.33 138.63 64.76-12.97 4.65 6.08-12.12 17.52-36.29 26.32-15.37 8.92-20.05-6.04-1.55-26.46" data-idx="939" style="stroke:#fff"/><path fill="#148D4A" d="m1127.49 442.43 38.85-17.97 6.15 9.21-5.9 54.51-52.46-22.38-2.84-10.16" data-idx="941" style="stroke:#fff"/><path fill="#8FCF67" d="m893.89 618.91 25.88-2.71 1.19 42.06-3.95 15.29-24.13-18.86" data-idx="943" style="stroke:#fff"/><path fill="#135C35" d="m1036.83 442.82 6.05 2.59 4.13 27.09.02.96-40 43.53-6.9-41.99" data-idx="945" style="stroke:#fff"/><path fill="#FBA05B" d="m137.1 682.98-21.85 45.8-26.43-6.14-19.14-25.5 16.15-13.72" data-idx="947" style="stroke:#fff"/><path fill="#B40E26" d="m1335.92 294.78 4.12-13.83 34.79-19.85 8.97 53.55-.99 1.72-1.78 2.2-21.14 8.09-5.96-4.04" data-idx="949" style="stroke:#fff"/><path fill="#F99053" d="m298.42 385.16 1.75 35.54-70.74-11.92 3.69-8.83 4.16-4.51" data-idx="951" style="stroke:#fff"/><path fill="#F99455" d="m193.02 745.21 14.29 14.73-21.47 35.15-19.09-4.37 3.52-27.27" data-idx="953" style="stroke:#fff"/><path fill="#92D068" d="m886.02 558.61 46.84 39.17-1.52 9.22-11.57 9.2-25.88 2.71-19.25-8.87" data-idx="955" style="stroke:#fff"/><path fill="#52352F" d="m1100.2 508.34 16.34-1.26 2.48 6.14-.95 26.25-3.41 1.16-31.96 7.01-1.43-.86-7.73-18.51" data-idx="957" style="stroke:#fff"/><path fill="#108647" d="m1122.39 185.05 2.21-.4 34.4 4.87 28.3 42.72-1.05.98-30.44 17.55-51.23-11.65.78-10.01" data-idx="959" style="stroke:#fff"/><path fill="#DE3F2E" d="m73.06 599.83 14.73 31.15-23.63 11.33-21.54-37.42 6.31-13.92" data-idx="961" style="stroke:#fff"/><path fill="#FDBB6C" d="m478.89 465.19 47.45 12.7-2.71 85.04-13.12 8.76-56.61 10.84-18.93-4.89-2.65-42.9" data-idx="963" style="stroke:#fff"/><path fill="#F0F9AB" d="m578.81 70.94 5.21-2.73 13.09.93 7.44 34.88-12.22 34.61L576.36 152l-17.03-21.12" data-idx="965" style="stroke:#fff"/><path fill="#5EB961" d="m707.63 173.67 19.98-3.32 8.84 12.25-18.65 50.41-18.25-15.36" data-idx="967" style="stroke:#fff"/><path fill="#98D368" d="m776.42 353.32 23.56 6.52 25.89 27.42-11.01 28.56-20.9 16.16-13.12 3.95-32.31-51.44" data-idx="969" style="stroke:#fff"/><path fill="#97D268" d="m874.68 431.83 12.32-4.96 54.76 27.66-.89 4.71-20.96 11.01-49.52-11.53" data-idx="971" style="stroke:#fff"/><path fill="#108546" d="m1149.12 333.76 38.51-3.97 9.12 64.39-24.91 12.04-34.81-43.04" data-idx="973" style="stroke:#fff"/><path fill="#016A38" d="m1193.81 51.22 12.48-27.07 21.09 17.5 16.9 25.69-28.42 37.35-19.57 9.24" data-idx="975" style="stroke:#fff"/><path fill="#B40E26" d="m1351.79 228.16 26.48 27.06-3.44 5.88-34.79 19.85-10.82-5.03 1.38-17.84" data-idx="977" style="stroke:#fff"/><path fill="#D93529" d="m1424.12 395.43 1.4-5.53 38.81-9.43 28.21 13.71-28.73 81.4-6.37-7.67" data-idx="979" style="stroke:#fff"/><path fill="#E54D34" d="m93.48 366.14-6.44 57.84-16.57 11.3-1.54-.53-33.37-51.61-1.89-31.22 4.4-.35" data-idx="981" style="stroke:#fff"/><path fill="#98D368" d="m814.34 507.76 3.84-.04 29.72 26.84-4.85 5.46-27.09 15.99" data-idx="983" style="stroke:#fff"/><path fill="#7FC866" d="m929.96 311.14 19.59-3.88 14.19 4.78 49.06 69.97-3.17 16.85-54.68-6.11-35.91-58.56" data-idx="985" style="stroke:#fff"/></g><text x="756" y="412" fill-opacity=".1" stroke="#fff" stroke-opacity=".1" data-idx="988" data-watermark="true" dominant-baseline="middle" font-size="15" style="opacity:1;font-size:15px" text-anchor="middle">LOADING.IO</text></svg>