<svg xmlns="http://www.w3.org/2000/svg" width="1512" height="824" preserveAspectRatio="xMidYMid" style="shape-rendering:auto;display:block;background:#000"><g data-idx="1"><g data-idx="2"><path fill="#05bceb" d="M1512 0h-332.675C279.067 0 7.415 824 7.415 824H1512Z" data-idx="3"/><path fill="#08B1E0" d="M1512 0h-284.3C375.095 0 21.854 824 21.854 824H1512Z" data-idx="4"/><path fill="#0E9FCD" d="M1512 0h-218.14C528.22 0 58.482 824 58.482 824H1512Z" data-idx="7"/><path fill="#138CB9" d="M1512 0h-173.77C661.782 0 115.672 824 115.672 824H1512Z" data-idx="10"/><path fill="#1879A6" d="M1512 0h-139.84C783.398 0 194.436 824 194.436 824H1512Z" data-idx="13"/><path fill="#1D6692" d="M1512 0h-112.18C896.581 0 295.551 824 295.551 824H1512Z" data-idx="16"/><path fill="#23537F" d="M1512 0h-88.73C1003.34 0 419.654 824 419.654 824H1512Z" data-idx="19"/><path fill="#28406B" d="M1512 0h-68.33c-338.71 0-876.381 824-876.381 824H1512Z" data-idx="22"/><path fill="#2D2E58" d="M1512 0h-50.25c-259.41 0-722.821 824-722.821 824H1512Z" data-idx="25"/><path fill="#321B44" d="M1512 0h-33.99c-181.89 0-543.012 824-543.012 824H1512Z" data-idx="28"/><path fill="#380831" d="M1512 0h-19.19c-106 0-336.93 824-336.93 824H1512Z" data-idx="31"/><path fill="rgba(25, 0, 17, 0.427)" d="M1512 0h-5.61c-31.62 0-104.47 824-104.47 824H1512Z" data-idx="34"/></g></g><text x="756" y="412" fill-opacity=".1" stroke="#fff" stroke-opacity=".1" data-idx="38" data-watermark="true" dominant-baseline="middle" font-size="15" style="opacity:1;font-size:15px" text-anchor="middle">LOADING.IO</text></svg>