<svg xmlns="http://www.w3.org/2000/svg" width="1512" height="824" preserveAspectRatio="xMidYMid" style="shape-rendering:auto;display:block;background:#000"><g data-idx="1"><defs data-idx="2"><linearGradient id="a" x1="0" x2="0" y1="0" y2="1" data-idx="3" gradientUnits="objectBoundingBox"><stop data-idx="4" offset="0" stop-color="#f0f"/><stop data-idx="5" offset="1" stop-color="#0ff"/></linearGradient></defs><g data-idx="6"><path fill="none" stroke="url(#a)" stroke-width=".5" d="M613.755-613.755c67.884 76.394 150.765 106.699 205.064 200.074M613.755-613.755c67.884 76.394 150.765 106.699 205.064 200.074 42.947 99.109-.609 179.907 21.197 277.697M613.755-613.755c67.884 76.394 150.765 106.699 205.064 200.074 42.947 99.109-.609 179.907 21.197 277.697 10.161 99.676 95.994 173.133 85.139 282.891m-311.4-760.662c67.884 76.394 150.765 106.699 205.064 200.074 42.947 99.109-.609 179.907 21.197 277.697 10.161 99.676 95.994 173.133 85.139 282.891-23.679 107.722-110.951 151.106-151.623 244.74M613.755-613.755c67.884 76.394 150.765 106.699 205.064 200.074 42.947 99.109-.609 179.907 21.197 277.697 10.161 99.676 95.994 173.133 85.139 282.891-23.679 107.722-110.951 151.106-151.623 244.74-51.395 88.204-26.842 202.966-101.907 286.609m-57.87-1292.011c67.884 76.394 150.765 106.699 205.064 200.074 42.947 99.109-.609 179.907 21.197 277.697 10.161 99.676 95.994 173.133 85.139 282.891-23.679 107.722-110.951 151.106-151.623 244.74-51.395 88.204-26.842 202.966-101.907 286.609-84.376 74.239-195.121 28.751-281.524 79.858M613.755-613.755c67.884 76.394 150.765 106.699 205.064 200.074 42.947 99.109-.609 179.907 21.197 277.697 10.161 99.676 95.994 173.133 85.139 282.891-23.679 107.722-110.951 151.106-151.623 244.74-51.395 88.204-26.842 202.966-101.907 286.609-84.376 74.239-195.121 28.751-281.524 79.858-91.81 40.596-140.135 135.296-246.877 158.483M613.755-613.755c67.884 76.394 150.765 106.699 205.064 200.074 42.947 99.109-.609 179.907 21.197 277.697 10.161 99.676 95.994 173.133 85.139 282.891-23.679 107.722-110.951 151.106-151.623 244.74-51.395 88.204-26.842 202.966-101.907 286.609-84.376 74.239-195.121 28.751-281.524 79.858-91.81 40.596-140.135 135.296-246.877 158.483-108.727 10.481-181.394-46.821-283.361-57.336M613.755-613.755c67.884 76.394 150.765 106.699 205.064 200.074 42.947 99.109-.609 179.907 21.197 277.697 10.161 99.676 95.994 173.133 85.139 282.891-23.679 107.722-110.951 151.106-151.623 244.74-51.395 88.204-26.842 202.966-101.907 286.609-84.376 74.239-195.121 28.751-281.524 79.858-91.81 40.596-140.135 135.296-246.877 158.483-108.727 10.481-181.394-46.821-283.361-57.336-100.024-22.428-185.233 10.143-285.165-34.127M613.755-613.755c67.884 76.394 150.765 106.699 205.064 200.074 42.947 99.109-.609 179.907 21.197 277.697 10.161 99.676 95.994 173.133 85.139 282.891-23.679 107.722-110.951 151.106-151.623 244.74-51.395 88.204-26.842 202.966-101.907 286.609-84.376 74.239-195.121 28.751-281.524 79.858-91.81 40.596-140.135 135.296-246.877 158.483-108.727 10.481-181.394-46.821-283.361-57.336-100.024-22.428-185.233 10.143-285.165-34.127-94.036-55.708-112.059-143.495-188.453-211.379" data-idx="8" transform="rotate(9.708)">/&gt;</path></g><g data-idx="10"><path fill="none" stroke="url(#a)" stroke-width=".5" d="M591.926-591.926c65.47 73.677 167.906 79.375 222.883 172.237M591.926-591.926c65.47 73.677 167.906 79.375 222.883 172.237 43.681 98.679-15.933 192.456 5.238 287.929M591.926-591.926c65.47 73.677 167.906 79.375 222.883 172.237 43.681 98.679-15.933 192.456 5.238 287.929 9.803 97.3 122.106 164.662 111.708 275.172M591.926-591.926c65.47 73.677 167.906 79.375 222.883 172.237 43.681 98.679-15.933 192.456 5.238 287.929 9.803 97.3 122.106 164.662 111.708 275.172C908.44 251.934 783.217 288.914 743.83 378.969M591.926-591.926c65.47 73.677 167.906 79.375 222.883 172.237 43.681 98.679-15.933 192.456 5.238 287.929 9.803 97.3 122.106 164.662 111.708 275.172C908.44 251.934 783.217 288.914 743.83 378.969c-49.699 84.801-24.06 190.628-95.998 271.279M591.926-591.926c65.47 73.677 167.906 79.375 222.883 172.237 43.681 98.679-15.933 192.456 5.238 287.929 9.803 97.3 122.106 164.662 111.708 275.172C908.44 251.934 783.217 288.914 743.83 378.969c-49.699 84.801-24.06 190.628-95.998 271.279-80.919 71.638-181.159 53.406-267.099 103.38M591.926-591.926c65.47 73.677 167.906 79.375 222.883 172.237 43.681 98.679-15.933 192.456 5.238 287.929 9.803 97.3 122.106 164.662 111.708 275.172C908.44 251.934 783.217 288.914 743.83 378.969c-49.699 84.801-24.06 190.628-95.998 271.279-80.919 71.638-181.159 53.406-267.099 103.38-91.219 39.526-127.176 135.066-233.389 158.709M591.926-591.926c65.47 73.677 167.906 79.375 222.883 172.237 43.681 98.679-15.933 192.456 5.238 287.929 9.803 97.3 122.106 164.662 111.708 275.172C908.44 251.934 783.217 288.914 743.83 378.969c-49.699 84.801-24.06 190.628-95.998 271.279-80.919 71.638-181.159 53.406-267.099 103.38-91.219 39.526-127.176 135.066-233.389 158.709-108.255 10.994-178.087-70.435-276.829-79.884M591.926-591.926c65.47 73.677 167.906 79.375 222.883 172.237 43.681 98.679-15.933 192.456 5.238 287.929 9.803 97.3 122.106 164.662 111.708 275.172C908.44 251.934 783.217 288.914 743.83 378.969c-49.699 84.801-24.06 190.628-95.998 271.279-80.919 71.638-181.159 53.406-267.099 103.38-91.219 39.526-127.176 135.066-233.389 158.709-108.255 10.994-178.087-70.435-276.829-79.884-96.947-20.99-182.853 19.509-280.825-23.108M591.926-591.926c65.47 73.677 167.906 79.375 222.883 172.237 43.681 98.679-15.933 192.456 5.238 287.929 9.803 97.3 122.106 164.662 111.708 275.172C908.44 251.934 783.217 288.914 743.83 378.969c-49.699 84.801-24.06 190.628-95.998 271.279-80.919 71.638-181.159 53.406-267.099 103.38-91.219 39.526-127.176 135.066-233.389 158.709-108.255 10.994-178.087-70.435-276.829-79.884-96.947-20.99-182.853 19.509-280.825-23.108-92.285-53.837-107.939-151.949-181.616-217.419" data-idx="12" transform="rotate(9.404)">/&gt;</path></g><g data-idx="14"><path fill="none" stroke="url(#a)" stroke-width=".5" d="M599.486-599.486c66.307 74.617 177.723 84.884 232.821 179.802M599.486-599.486c66.307 74.617 177.723 84.884 232.821 179.802 43.56 100.736-38.966 192.972-17.818 287.79M599.486-599.486c66.307 74.617 177.723 84.884 232.821 179.802 43.56 100.736-38.966 192.972-17.818 287.79 9.857 96.648 119.268 171.232 108.172 280.71M599.486-599.486c66.307 74.617 177.723 84.884 232.821 179.802 43.56 100.736-38.966 192.972-17.818 287.79 9.857 96.648 119.268 171.232 108.172 280.71-23.887 107.416-121.937 145.774-162.113 237.847M599.486-599.486c66.307 74.617 177.723 84.884 232.821 179.802 43.56 100.736-38.966 192.972-17.818 287.79 9.857 96.648 119.268 171.232 108.172 280.71-23.887 107.416-121.937 145.774-162.113 237.847-50.719 86.713-28.147 184.969-100.412 267.092m-60.65-1253.241c66.307 74.617 177.723 84.884 232.821 179.802 43.56 100.736-38.966 192.972-17.818 287.79 9.857 96.648 119.268 171.232 108.172 280.71-23.887 107.416-121.937 145.774-162.113 237.847-50.719 86.713-28.147 184.969-100.412 267.092-81.417 73.059-195.771 37.378-280.224 87.168M599.486-599.486c66.307 74.617 177.723 84.884 232.821 179.802 43.56 100.736-38.966 192.972-17.818 287.79 9.857 96.648 119.268 171.232 108.172 280.71-23.887 107.416-121.937 145.774-162.113 237.847-50.719 86.713-28.147 184.969-100.412 267.092-81.417 73.059-195.771 37.378-280.224 87.168-89.719 39.518-133.359 135.601-238.092 158.504M599.486-599.486c66.307 74.617 177.723 84.884 232.821 179.802 43.56 100.736-38.966 192.972-17.818 287.79 9.857 96.648 119.268 171.232 108.172 280.71-23.887 107.416-121.937 145.774-162.113 237.847-50.719 86.713-28.147 184.969-100.412 267.092-81.417 73.059-195.771 37.378-280.224 87.168-89.719 39.518-133.359 135.601-238.092 158.504-106.7 10.435-173.346-75.736-269.943-85.151M599.486-599.486c66.307 74.617 177.723 84.884 232.821 179.802 43.56 100.736-38.966 192.972-17.818 287.79 9.857 96.648 119.268 171.232 108.172 280.71-23.887 107.416-121.937 145.774-162.113 237.847-50.719 86.713-28.147 184.969-100.412 267.092-81.417 73.059-195.771 37.378-280.224 87.168-89.719 39.518-133.359 135.601-238.092 158.504-106.7 10.435-173.346-75.736-269.943-85.151-94.819-20.703-189.5 43.466-288.115.187M599.486-599.486c66.307 74.617 177.723 84.884 232.821 179.802 43.56 100.736-38.966 192.972-17.818 287.79 9.857 96.648 119.268 171.232 108.172 280.71-23.887 107.416-121.937 145.774-162.113 237.847-50.719 86.713-28.147 184.969-100.412 267.092-81.417 73.059-195.771 37.378-280.224 87.168-89.719 39.518-133.359 135.601-238.092 158.504-106.7 10.435-173.346-75.736-269.943-85.151-94.819-20.703-189.5 43.466-288.115.187-92.845-54.569-108.631-148.67-183.248-214.977" data-idx="16" transform="rotate(8.976)">/&gt;</path></g><g data-idx="18"><path fill="none" stroke="url(#a)" stroke-width=".5" d="M595.731-595.731c65.892 74.15 160.147 85.914 214.83 178.292m-214.83-178.292c65.892 74.15 160.147 85.914 214.83 178.292 43.446 98.165 9.635 182.026 31.619 280.062M595.731-595.731c65.892 74.15 160.147 85.914 214.83 178.292 43.446 98.165 9.635 182.026 31.619 280.062 10.31 99.94 77.496 172.579 66.984 280.431M595.731-595.731c65.892 74.15 160.147 85.914 214.83 178.292 43.446 98.165 9.635 182.026 31.619 280.062 10.31 99.94 77.496 172.579 66.984 280.431-23.116 105.869-132.371 145.42-171.662 234.723M595.731-595.731c65.892 74.15 160.147 85.914 214.83 178.292 43.446 98.165 9.635 182.026 31.619 280.062 10.31 99.94 77.496 172.579 66.984 280.431-23.116 105.869-132.371 145.42-171.662 234.723-49.515 84.065-28.115 184.737-99.149 264.217M595.731-595.731c65.892 74.15 160.147 85.914 214.83 178.292 43.446 98.165 9.635 182.026 31.619 280.062 10.31 99.94 77.496 172.579 66.984 280.431-23.116 105.869-132.371 145.42-171.662 234.723-49.515 84.065-28.115 184.737-99.149 264.217-79.883 70.58-180.718 41.165-264.187 90.219M595.731-595.731c65.892 74.15 160.147 85.914 214.83 178.292 43.446 98.165 9.635 182.026 31.619 280.062 10.31 99.94 77.496 172.579 66.984 280.431-23.116 105.869-132.371 145.42-171.662 234.723-49.515 84.065-28.115 184.737-99.149 264.217-79.883 70.58-180.718 41.165-264.187 90.219-88.656 38.904-132.149 136.199-235.897 158.626m457.462-1486.57c65.892 74.15 160.147 85.914 214.83 178.292 43.446 98.165 9.635 182.026 31.619 280.062 10.31 99.94 77.496 172.579 66.984 280.431-23.116 105.869-132.371 145.42-171.662 234.723-49.515 84.065-28.115 184.737-99.149 264.217-79.883 70.58-180.718 41.165-264.187 90.219-88.656 38.904-132.149 136.199-235.897 158.626-105.666 10.077-170.355-67.001-266.964-76.483M595.731-595.731c65.892 74.15 160.147 85.914 214.83 178.292 43.446 98.165 9.635 182.026 31.619 280.062 10.31 99.94 77.496 172.579 66.984 280.431-23.116 105.869-132.371 145.42-171.662 234.723-49.515 84.065-28.115 184.737-99.149 264.217-79.883 70.58-180.718 41.165-264.187 90.219-88.656 38.904-132.149 136.199-235.897 158.626-105.666 10.077-170.355-67.001-266.964-76.483-94.825-20.771-186.749 42.236-285.244-.778M595.731-595.731c65.892 74.15 160.147 85.914 214.83 178.292 43.446 98.165 9.635 182.026 31.619 280.062 10.31 99.94 77.496 172.579 66.984 280.431-23.116 105.869-132.371 145.42-171.662 234.723-49.515 84.065-28.115 184.737-99.149 264.217-79.883 70.58-180.718 41.165-264.187 90.219-88.656 38.904-132.149 136.199-235.897 158.626-105.666 10.077-170.355-67.001-266.964-76.483-94.825-20.771-186.749 42.236-285.244-.778-92.756-54.293-107.642-151.955-181.792-217.847" data-idx="20" transform="rotate(8.408)">/&gt;</path></g><g data-idx="22"><path fill="none" stroke="url(#a)" stroke-width=".5" d="M579.988-579.988c64.15 72.19 190.575 66.377 245.602 160.507M579.988-579.988c64.15 72.19 190.575 66.377 245.602 160.507 43.582 99.945-21.932 192.783-.857 288.814M579.988-579.988c64.15 72.19 190.575 66.377 245.602 160.507 43.582 99.945-21.932 192.783-.857 288.814 9.641 97.843 69.062 167.862 58.495 272.658m-303.24-721.979c64.15 72.19 190.575 66.377 245.602 160.507 43.582 99.945-21.932 192.783-.857 288.814 9.641 97.843 69.062 167.862 58.495 272.658-22.811 102.828-109.866 146.277-149.109 235.178M579.988-579.988c64.15 72.19 190.575 66.377 245.602 160.507 43.582 99.945-21.932 192.783-.857 288.814 9.641 97.843 69.062 167.862 58.495 272.658-22.811 102.828-109.866 146.277-149.109 235.178-49.42 83.672-15.79 186.145-86.979 266.671M579.988-579.988c64.15 72.19 190.575 66.377 245.602 160.507 43.582 99.945-21.932 192.783-.857 288.814 9.641 97.843 69.062 167.862 58.495 272.658-22.811 102.828-109.866 146.277-149.109 235.178-49.42 83.672-15.79 186.145-86.979 266.671-80.161 71.6-190.305 34.821-273.239 83.812m206.087-1307.64c64.15 72.19 190.575 66.377 245.602 160.507 43.582 99.945-21.932 192.783-.857 288.814 9.641 97.843 69.062 167.862 58.495 272.658-22.811 102.828-109.866 146.277-149.109 235.178-49.42 83.672-15.79 186.145-86.979 266.671-80.161 71.6-190.305 34.821-273.239 83.812-88.118 38.904-123.312 156.379-228.956 179.705M579.988-579.988c64.15 72.19 190.575 66.377 245.602 160.507 43.582 99.945-21.932 192.783-.857 288.814 9.641 97.843 69.062 167.862 58.495 272.658-22.811 102.828-109.866 146.277-149.109 235.178-49.42 83.672-15.79 186.145-86.979 266.671-80.161 71.6-190.305 34.821-273.239 83.812-88.118 38.904-123.312 156.379-228.956 179.705-107.653 10.747-176.618-93.239-272.087-102.605m707.13-1384.74c64.15 72.19 190.575 66.377 245.602 160.507 43.582 99.945-21.932 192.783-.857 288.814 9.641 97.843 69.062 167.862 58.495 272.658-22.811 102.828-109.866 146.277-149.109 235.178-49.42 83.672-15.79 186.145-86.979 266.671-80.161 71.6-190.305 34.821-273.239 83.812-88.118 38.904-123.312 156.379-228.956 179.705-107.653 10.747-176.618-93.239-272.087-102.605-93.708-20.522-189.183 58.618-288.468 15.453M579.988-579.988c64.15 72.19 190.575 66.377 245.602 160.507 43.582 99.945-21.932 192.783-.857 288.814 9.641 97.843 69.062 167.862 58.495 272.658-22.811 102.828-109.866 146.277-149.109 235.178-49.42 83.672-15.79 186.145-86.979 266.671-80.161 71.6-190.305 34.821-273.239 83.812-88.118 38.904-123.312 156.379-228.956 179.705-107.653 10.747-176.618-93.239-272.087-102.605-93.708-20.522-189.183 58.618-288.468 15.453-93.524-54.535-92.188-176.067-164.378-240.217" data-idx="24" transform="rotate(7.687)">/&gt;</path></g><g data-idx="26"><path fill="none" stroke="url(#a)" stroke-width=".5" d="M574.14-574.14c63.503 71.463 167.031 77.607 220.255 168.164M574.14-574.14c63.503 71.463 167.031 77.607 220.255 168.164 42.211 96.185-5.001 184.703 15.535 279.02M574.14-574.14c63.503 71.463 167.031 77.607 220.255 168.164 42.211 96.185-5.001 184.703 15.535 279.02 9.308 96.078 82.301 165.418 71.596 270.022M574.14-574.14c63.503 71.463 167.031 77.607 220.255 168.164 42.211 96.185-5.001 184.703 15.535 279.02 9.308 96.078 82.301 165.418 71.596 270.022-22.926 102.62-118.464 138.975-156.904 226.708M574.14-574.14c63.503 71.463 167.031 77.607 220.255 168.164 42.211 96.185-5.001 184.703 15.535 279.02 9.308 96.078 82.301 165.418 71.596 270.022-22.926 102.62-118.464 138.975-156.904 226.708-48.485 82.607-21.302 182.975-91.145 261.81M574.14-574.14c63.503 71.463 167.031 77.607 220.255 168.164 42.211 96.185-5.001 184.703 15.535 279.02 9.308 96.078 82.301 165.418 71.596 270.022-22.926 102.62-118.464 138.975-156.904 226.708-48.485 82.607-21.302 182.975-91.145 261.81-78.626 70.079-180.848 43.53-263.336 92.052M574.14-574.14c63.503 71.463 167.031 77.607 220.255 168.164 42.211 96.185-5.001 184.703 15.535 279.02 9.308 96.078 82.301 165.418 71.596 270.022-22.926 102.62-118.464 138.975-156.904 226.708-48.485 82.607-21.302 182.975-91.145 261.81-78.626 70.079-180.848 43.53-263.336 92.052-87.62 38.489-123.017 147.844-227.162 170.85M574.14-574.14c63.503 71.463 167.031 77.607 220.255 168.164 42.211 96.185-5.001 184.703 15.535 279.02 9.308 96.078 82.301 165.418 71.596 270.022-22.926 102.62-118.464 138.975-156.904 226.708-48.485 82.607-21.302 182.975-91.145 261.81-78.626 70.079-180.848 43.53-263.336 92.052-87.62 38.489-123.017 147.844-227.162 170.85-106.126 10.605-176.378-60.766-274.14-70.47M574.14-574.14c63.503 71.463 167.031 77.607 220.255 168.164 42.211 96.185-5.001 184.703 15.535 279.02 9.308 96.078 82.301 165.418 71.596 270.022-22.926 102.62-118.464 138.975-156.904 226.708-48.485 82.607-21.302 182.975-91.145 261.81-78.626 70.079-180.848 43.53-263.336 92.052-87.62 38.489-123.017 147.844-227.162 170.85-106.126 10.605-176.378-60.766-274.14-70.47-95.943-21.128-182.577 15.96-279.131-26.739M574.14-574.14c63.503 71.463 167.031 77.607 220.255 168.164 42.211 96.185-5.001 184.703 15.535 279.02 9.308 96.078 82.301 165.418 71.596 270.022-22.926 102.62-118.464 138.975-156.904 226.708-48.485 82.607-21.302 182.975-91.145 261.81-78.626 70.079-180.848 43.53-263.336 92.052-87.62 38.489-123.017 147.844-227.162 170.85-106.126 10.605-176.378-60.766-274.14-70.47-95.943-21.128-182.577 15.96-279.131-26.739-90.866-53.751-92.385-159.634-163.848-223.137" data-idx="28" transform="rotate(6.799)">/&gt;</path></g><g data-idx="30"><path fill="none" stroke="url(#a)" stroke-width=".5" d="M582.227-582.227c64.397 72.47 150.055 93.69 202.4 183.147m-202.4-183.147c64.397 72.47 150.055 93.69 202.4 183.147 41.468 94.989 2.343 176.383 23.063 270.425M582.227-582.227c64.397 72.47 150.055 93.69 202.4 183.147 41.468 94.989 2.343 176.383 23.063 270.425 9.523 95.825 87.568 161.826 77.463 266.822M582.227-582.227c64.397 72.47 150.055 93.69 202.4 183.147 41.468 94.989 2.343 176.383 23.063 270.425 9.523 95.825 87.568 161.826 77.463 266.822-22.375 103.081-116.124 145.348-154.779 233.773M582.227-582.227c64.397 72.47 150.055 93.69 202.4 183.147 41.468 94.989 2.343 176.383 23.063 270.425 9.523 95.825 87.568 161.826 77.463 266.822-22.375 103.081-116.124 145.348-154.779 233.773-48.779 83.268-31.272 180.92-101.1 259.258M582.227-582.227c64.397 72.47 150.055 93.69 202.4 183.147 41.468 94.989 2.343 176.383 23.063 270.425 9.523 95.825 87.568 161.826 77.463 266.822-22.375 103.081-116.124 145.348-154.779 233.773-48.779 83.268-31.272 180.92-101.1 259.258-78.551 69.588-172.322 56.053-256.267 104.999m209.22-1318.424c64.397 72.47 150.055 93.69 202.4 183.147 41.468 94.989 2.343 176.383 23.063 270.425 9.523 95.825 87.568 161.826 77.463 266.822-22.375 103.081-116.124 145.348-154.779 233.773-48.779 83.268-31.272 180.92-101.1 259.258-78.551 69.588-172.322 56.053-256.267 104.999-89.116 38.739-132.852 123.419-235.554 145.688M582.227-582.227c64.397 72.47 150.055 93.69 202.4 183.147 41.468 94.989 2.343 176.383 23.063 270.425 9.523 95.825 87.568 161.826 77.463 266.822-22.375 103.081-116.124 145.348-154.779 233.773-48.779 83.268-31.272 180.92-101.1 259.258-78.551 69.588-172.322 56.053-256.267 104.999-89.116 38.739-132.852 123.419-235.554 145.688-104.607 10.043-167.1-66.243-262.762-75.381M582.227-582.227c64.397 72.47 150.055 93.69 202.4 183.147 41.468 94.989 2.343 176.383 23.063 270.425 9.523 95.825 87.568 161.826 77.463 266.822-22.375 103.081-116.124 145.348-154.779 233.773-48.779 83.268-31.272 180.92-101.1 259.258-78.551 69.588-172.322 56.053-256.267 104.999-89.116 38.739-132.852 123.419-235.554 145.688-104.607 10.043-167.1-66.243-262.762-75.381-93.926-20.319-177.465 21.584-272.698-19.743M582.227-582.227c64.397 72.47 150.055 93.69 202.4 183.147 41.468 94.989 2.343 176.383 23.063 270.425 9.523 95.825 87.568 161.826 77.463 266.822-22.375 103.081-116.124 145.348-154.779 233.773-48.779 83.268-31.272 180.92-101.1 259.258-78.551 69.588-172.322 56.053-256.267 104.999-89.116 38.739-132.852 123.419-235.554 145.688-104.607 10.043-167.1-66.243-262.762-75.381-93.926-20.319-177.465 21.584-272.698-19.743-89.715-52.235-111.75-140.137-184.22-204.534" data-idx="32" transform="rotate(5.738)">/&gt;</path></g><g data-idx="34"><path fill="none" stroke="url(#a)" stroke-width=".5" d="M579.516-579.516c64.098 72.131 155.59 93.409 207.63 183.181m-207.63-183.181c64.098 72.131 155.59 93.409 207.63 183.181 41.129 95.266-4.796 176.366 15.636 269.846M579.516-579.516c64.098 72.131 155.59 93.409 207.63 183.181 41.129 95.266-4.796 176.366 15.636 269.846 9.303 95.234 75.719 156.201 66.137 259.252M579.516-579.516c64.098 72.131 155.59 93.409 207.63 183.181 41.129 95.266-4.796 176.366 15.636 269.846 9.303 95.234 75.719 156.201 66.137 259.252-21.627 101.21-114.775 144.667-152.611 231.384M579.516-579.516c64.098 72.131 155.59 93.409 207.63 183.181 41.129 95.266-4.796 176.366 15.636 269.846 9.303 95.234 75.719 156.201 66.137 259.252-21.627 101.21-114.775 144.667-152.611 231.384-47.766 81.669-11.1 191.68-81.319 270.715M579.516-579.516c64.098 72.131 155.59 93.409 207.63 183.181 41.129 95.266-4.796 176.366 15.636 269.846 9.303 95.234 75.719 156.201 66.137 259.252-21.627 101.21-114.775 144.667-152.611 231.384-47.766 81.669-11.1 191.68-81.319 270.715-79.021 70.235-182.46 47.71-265.825 96.168M579.516-579.516c64.098 72.131 155.59 93.409 207.63 183.181 41.129 95.266-4.796 176.366 15.636 269.846 9.303 95.234 75.719 156.201 66.137 259.252-21.627 101.21-114.775 144.667-152.611 231.384-47.766 81.669-11.1 191.68-81.319 270.715-79.021 70.235-182.46 47.71-265.825 96.168-88.482 38.323-125.47 130.973-228.477 153.641M579.516-579.516c64.098 72.131 155.59 93.409 207.63 183.181 41.129 95.266-4.796 176.366 15.636 269.846 9.303 95.234 75.719 156.201 66.137 259.252-21.627 101.21-114.775 144.667-152.611 231.384-47.766 81.669-11.1 191.68-81.319 270.715-79.021 70.235-182.46 47.71-265.825 96.168-88.482 38.323-125.47 130.973-228.477 153.641-104.957 10.404-172.18-71.86-267.498-81.196M579.516-579.516c64.098 72.131 155.59 93.409 207.63 183.181 41.129 95.266-4.796 176.366 15.636 269.846 9.303 95.234 75.719 156.201 66.137 259.252-21.627 101.21-114.775 144.667-152.611 231.384-47.766 81.669-11.1 191.68-81.319 270.715-79.021 70.235-182.46 47.71-265.825 96.168-88.482 38.323-125.47 130.973-228.477 153.641-104.957 10.404-172.18-71.86-267.498-81.196-93.56-20.474-171.531 9.2-264.983-31.499m971.31-1351.492c64.098 72.131 155.59 93.409 207.63 183.181 41.129 95.266-4.796 176.366 15.636 269.846 9.303 95.234 75.719 156.201 66.137 259.252-21.627 101.21-114.775 144.667-152.611 231.384-47.766 81.669-11.1 191.68-81.319 270.715-79.021 70.235-182.46 47.71-265.825 96.168-88.482 38.323-125.47 130.973-228.477 153.641-104.957 10.404-172.18-71.86-267.498-81.196-93.56-20.474-171.531 9.2-264.983-31.499-88.02-51.401-115.591-128.362-187.722-192.46" data-idx="36" transform="rotate(4.502)">/&gt;</path></g><g data-idx="38"><path fill="none" stroke="url(#a)" stroke-width=".5" d="M572.428-572.428c63.313 71.25 156.175 80.595 208.934 169.642M572.428-572.428c63.313 71.25 156.175 80.595 208.934 169.642 41.926 94.631-17.533 188.932 2.309 280.193M572.428-572.428c63.313 71.25 156.175 80.595 208.934 169.642 41.926 94.631-17.533 188.932 2.309 280.193 8.977 92.96 109.031 157.738 98.712 262.42M572.428-572.428c63.313 71.25 156.175 80.595 208.934 169.642 41.926 94.631-17.533 188.932 2.309 280.193 8.977 92.96 109.031 157.738 98.712 262.42-22.551 102.744-130.99 135.693-168.582 222.1M572.428-572.428c63.313 71.25 156.175 80.595 208.934 169.642 41.926 94.631-17.533 188.932 2.309 280.193 8.977 92.96 109.031 157.738 98.712 262.42-22.551 102.744-130.99 135.693-168.582 222.1-47.488 81.39-21.916 186.89-91.218 264.408M572.428-572.428c63.313 71.25 156.175 80.595 208.934 169.642 41.926 94.631-17.533 188.932 2.309 280.193 8.977 92.96 109.031 157.738 98.712 262.42-22.551 102.744-130.99 135.693-168.582 222.1-47.488 81.39-21.916 186.89-91.218 264.408-77.934 68.835-181.345 28.415-261.361 75.739M572.428-572.428c63.313 71.25 156.175 80.595 208.934 169.642 41.926 94.631-17.533 188.932 2.309 280.193 8.977 92.96 109.031 157.738 98.712 262.42-22.551 102.744-130.99 135.693-168.582 222.1-47.488 81.39-21.916 186.89-91.218 264.408-77.934 68.835-181.345 28.415-261.361 75.739-85.024 37.59-122.214 151.784-224.231 173.958m435.437-1448.46c63.313 71.25 156.175 80.595 208.934 169.642 41.926 94.631-17.533 188.932 2.309 280.193 8.977 92.96 109.031 157.738 98.712 262.42-22.551 102.744-130.99 135.693-168.582 222.1-47.488 81.39-21.916 186.89-91.218 264.408-77.934 68.835-181.345 28.415-261.361 75.739-85.024 37.59-122.214 151.784-224.231 173.958-103.916 10.03-171.266-76.572-264.995-86.142M572.428-572.428c63.313 71.25 156.175 80.595 208.934 169.642 41.926 94.631-17.533 188.932 2.309 280.193 8.977 92.96 109.031 157.738 98.712 262.42-22.551 102.744-130.99 135.693-168.582 222.1-47.488 81.39-21.916 186.89-91.218 264.408-77.934 68.835-181.345 28.415-261.361 75.739-85.024 37.59-122.214 151.784-224.231 173.958-103.916 10.03-171.266-76.572-264.995-86.142-91.954-20.52-172.616 29.972-266.897-11.045M572.428-572.428c63.313 71.25 156.175 80.595 208.934 169.642 41.926 94.631-17.533 188.932 2.309 280.193 8.977 92.96 109.031 157.738 98.712 262.42-22.551 102.744-130.99 135.693-168.582 222.1-47.488 81.39-21.916 186.89-91.218 264.408-77.934 68.835-181.345 28.415-261.361 75.739-85.024 37.59-122.214 151.784-224.231 173.958-103.916 10.03-171.266-76.572-264.995-86.142-91.954-20.52-172.616 29.972-266.897-11.045-88.806-51.815-106.277-143.104-177.527-206.417" data-idx="40" transform="rotate(3.107)">/&gt;</path></g><g data-idx="42"><path fill="none" stroke="url(#a)" stroke-width=".5" d="M564.574-564.574c62.445 70.272 163.213 76.029 215.59 164.957m-215.59-164.957c62.445 70.272 163.213 76.029 215.59 164.957 41.563 94.469-28.045 184.365-7.958 274.259M564.574-564.574c62.445 70.272 163.213 76.029 215.59 164.957 41.563 94.469-28.045 184.365-7.958 274.259 9.381 91.632 80.088 154.76 70.725 254.733M564.574-564.574c62.445 70.272 163.213 76.029 215.59 164.957 41.563 94.469-28.045 184.365-7.958 274.259 9.381 91.632 80.088 154.76 70.725 254.733-21.05 98.179-85.762 153.123-124.215 240.161m-154.142-934.11c62.445 70.272 163.213 76.029 215.59 164.957 41.563 94.469-28.045 184.365-7.958 274.259 9.381 91.632 80.088 154.76 70.725 254.733-21.05 98.179-85.762 153.123-124.215 240.161-48.416 81.914-28.9 174.183-97.589 251.493M564.574-564.574c62.445 70.272 163.213 76.029 215.59 164.957 41.563 94.469-28.045 184.365-7.958 274.259 9.381 91.632 80.088 154.76 70.725 254.733-21.05 98.179-85.762 153.123-124.215 240.161-48.416 81.914-28.9 174.183-97.589 251.493-77.299 68.701-185.361 31.067-265.027 77.766M564.574-564.574c62.445 70.272 163.213 76.029 215.59 164.957 41.563 94.469-28.045 184.365-7.958 274.259 9.381 91.632 80.088 154.76 70.725 254.733-21.05 98.179-85.762 153.123-124.215 240.161-48.416 81.914-28.9 174.183-97.589 251.493-77.299 68.701-185.361 31.067-265.027 77.766-84.603 37.011-120.748 140.082-220.979 161.93M564.574-564.574c62.445 70.272 163.213 76.029 215.59 164.957 41.563 94.469-28.045 184.365-7.958 274.259 9.381 91.632 80.088 154.76 70.725 254.733-21.05 98.179-85.762 153.123-124.215 240.161-48.416 81.914-28.9 174.183-97.589 251.493-77.299 68.701-185.361 31.067-265.027 77.766-84.603 37.011-120.748 140.082-220.979 161.93-102.104 9.915-163.886-62.492-257.508-71.406M564.574-564.574c62.445 70.272 163.213 76.029 215.59 164.957 41.563 94.469-28.045 184.365-7.958 274.259 9.381 91.632 80.088 154.76 70.725 254.733-21.05 98.179-85.762 153.123-124.215 240.161-48.416 81.914-28.9 174.183-97.589 251.493-77.299 68.701-185.361 31.067-265.027 77.766-84.603 37.011-120.748 140.082-220.979 161.93-102.104 9.915-163.886-62.492-257.508-71.406-91.927-19.856-179.83 29.111-273.931-12.083m960.892-1341.81c62.445 70.272 163.213 76.029 215.59 164.957 41.563 94.469-28.045 184.365-7.958 274.259 9.381 91.632 80.088 154.76 70.725 254.733-21.05 98.179-85.762 153.123-124.215 240.161-48.416 81.914-28.9 174.183-97.589 251.493-77.299 68.701-185.361 31.067-265.027 77.766-84.603 37.011-120.748 140.082-220.979 161.93-102.104 9.915-163.886-62.492-257.508-71.406-91.927-19.856-179.83 29.111-273.931-12.083-88.607-51.97-97.984-150.217-168.256-212.662" data-idx="44" transform="rotate(1.588)">/&gt;</path></g><g data-idx="46"><path fill="none" stroke="url(#a)" stroke-width=".5" d="M561.033-561.033c62.054 69.831 148.031 91.94 198.252 178.533M561.033-561.033c62.054 69.831 148.031 91.94 198.252 178.533 39.695 91.895-14.491 171.954 5.093 260.955M561.033-561.033c62.054 69.831 148.031 91.94 198.252 178.533 39.695 91.895-14.491 171.954 5.093 260.955 8.988 90.685 85.926 155.54 76.036 255.246M561.033-561.033c62.054 69.831 148.031 91.94 198.252 178.533 39.695 91.895-14.491 171.954 5.093 260.955 8.988 90.685 85.926 155.54 76.036 255.246-21.54 97.854-118.225 135.81-154.908 218.826m-124.473-913.56c62.054 69.831 148.031 91.94 198.252 178.533 39.695 91.895-14.491 171.954 5.093 260.955 8.988 90.685 85.926 155.54 76.036 255.246-21.54 97.854-118.225 135.81-154.908 218.826-46.187 78.129-11.839 177.09-78.759 252.6m-45.714-1166.16c62.054 69.831 148.031 91.94 198.252 178.533 39.695 91.895-14.491 171.954 5.093 260.955 8.988 90.685 85.926 155.54 76.036 255.246-21.54 97.854-118.225 135.81-154.908 218.826-46.187 78.129-11.839 177.09-78.759 252.6-75.331 67.121-167.548 51.974-247.826 99.041M561.033-561.033c62.054 69.831 148.031 91.94 198.252 178.533 39.695 91.895-14.491 171.954 5.093 260.955 8.988 90.685 85.926 155.54 76.036 255.246-21.54 97.854-118.225 135.81-154.908 218.826-46.187 78.129-11.839 177.09-78.759 252.6-75.331 67.121-167.548 51.974-247.826 99.041-85.254 37.306-128.027 130.138-227.689 151.494M561.033-561.033c62.054 69.831 148.031 91.94 198.252 178.533 39.695 91.895-14.491 171.954 5.093 260.955 8.988 90.685 85.926 155.54 76.036 255.246-21.54 97.854-118.225 135.81-154.908 218.826-46.187 78.129-11.839 177.09-78.759 252.6-75.331 67.121-167.548 51.974-247.826 99.041-85.254 37.306-128.027 130.138-227.689 151.494-101.482 9.493-162.263-82.217-252.956-91.225m682.757-1325.47c62.054 69.831 148.031 91.94 198.252 178.533 39.695 91.895-14.491 171.954 5.093 260.955 8.988 90.685 85.926 155.54 76.036 255.246-21.54 97.854-118.225 135.81-154.908 218.826-46.187 78.129-11.839 177.09-78.759 252.6-75.331 67.121-167.548 51.974-247.826 99.041-85.254 37.306-128.027 130.138-227.689 151.494-101.482 9.493-162.263-82.217-252.956-91.225-89.007-19.606-175.333 42.772-268.152 2.262M561.033-561.033c62.054 69.831 148.031 91.94 198.252 178.533 39.695 91.895-14.491 171.954 5.093 260.955 8.988 90.685 85.926 155.54 76.036 255.246-21.54 97.854-118.225 135.81-154.908 218.826-46.187 78.129-11.839 177.09-78.759 252.6-75.331 67.121-167.548 51.974-247.826 99.041-85.254 37.306-128.027 130.138-227.689 151.494-101.482 9.493-162.263-82.217-252.956-91.225-89.007-19.606-175.333 42.772-268.152 2.262-87.413-51.139-101.326-143.612-171.157-205.666" data-idx="48">/&gt;</path></g><g data-idx="50"><path fill="none" stroke="url(#a)" stroke-width=".5" d="M556.619-556.619c61.566 69.281 159.891 75.052 211.526 162.607M556.619-556.619c61.566 69.281 159.891 75.052 211.526 162.607 40.987 93.017-9.857 183.122 9.674 273.711m-221.2-436.318c61.566 69.281 159.891 75.052 211.526 162.607 40.987 93.017-9.857 183.122 9.674 273.711 8.749 92.256 72.959 154.124 63.087 253.887M556.619-556.619c61.566 69.281 159.891 75.052 211.526 162.607 40.987 93.017-9.857 183.122 9.674 273.711 8.749 92.256 72.959 154.124 63.087 253.887C819.375 231.498 730.19 269.095 693.5 353.054M556.619-556.619c61.566 69.281 159.891 75.052 211.526 162.607 40.987 93.017-9.857 183.122 9.674 273.711 8.749 92.256 72.959 154.124 63.087 253.887C819.375 231.498 730.19 269.095 693.5 353.054c-46.304 79.065-21.673 173.695-88.242 249.009M556.619-556.619c61.566 69.281 159.891 75.052 211.526 162.607 40.987 93.017-9.857 183.122 9.674 273.711 8.749 92.256 72.959 154.124 63.087 253.887C819.375 231.498 730.19 269.095 693.5 353.054c-46.304 79.065-21.673 173.695-88.242 249.009-74.961 66.967-171.501 50.11-251.163 96.572M556.619-556.619c61.566 69.281 159.891 75.052 211.526 162.607 40.987 93.017-9.857 183.122 9.674 273.711 8.749 92.256 72.959 154.124 63.087 253.887C819.375 231.498 730.19 269.095 693.5 353.054c-46.304 79.065-21.673 173.695-88.242 249.009-74.961 66.967-171.501 50.11-251.163 96.572-84.57 36.777-125.953 124.629-224.298 145.738M556.619-556.619c61.566 69.281 159.891 75.052 211.526 162.607 40.987 93.017-9.857 183.122 9.674 273.711 8.749 92.256 72.959 154.124 63.087 253.887C819.375 231.498 730.19 269.095 693.5 353.054c-46.304 79.065-21.673 173.695-88.242 249.009-74.961 66.967-171.501 50.11-251.163 96.572-84.57 36.777-125.953 124.629-224.298 145.738-100.146 9.403-160.427-66.568-251.635-75.559M556.619-556.619c61.566 69.281 159.891 75.052 211.526 162.607 40.987 93.017-9.857 183.122 9.674 273.711 8.749 92.256 72.959 154.124 63.087 253.887C819.375 231.498 730.19 269.095 693.5 353.054c-46.304 79.065-21.673 173.695-88.242 249.009-74.961 66.967-171.501 50.11-251.163 96.572-84.57 36.777-125.953 124.629-224.298 145.738-100.146 9.403-160.427-66.568-251.635-75.559-89.52-19.65-177.521 41.946-270.741 1.141M556.619-556.619c61.566 69.281 159.891 75.052 211.526 162.607 40.987 93.017-9.857 183.122 9.674 273.711 8.749 92.256 72.959 154.124 63.087 253.887C819.375 231.498 730.19 269.095 693.5 353.054c-46.304 79.065-21.673 173.695-88.242 249.009-74.961 66.967-171.501 50.11-251.163 96.572-84.57 36.777-125.953 124.629-224.298 145.738-100.146 9.403-160.427-66.568-251.635-75.559-89.52-19.65-177.521 41.946-270.741 1.141-87.777-51.48-94.759-151.77-164.04-213.336" data-idx="52" transform="rotate(-1.588)">/&gt;</path></g><g data-idx="54"><path fill="none" stroke="url(#a)" stroke-width=".5" d="M539.887-539.887c59.714 67.2 151.639 78.151 201.117 162.632M539.887-539.887c59.714 67.2 151.639 78.151 201.117 162.632 39.205 89.71-4.362 169.114 14.996 257.14M539.887-539.887c59.714 67.2 151.639 78.151 201.117 162.632 39.205 89.71-4.362 169.114 14.996 257.14 8.878 89.69 91.782 154.725 81.838 254.131M539.887-539.887c59.714 67.2 151.639 78.151 201.117 162.632 39.205 89.71-4.362 169.114 14.996 257.14 8.878 89.69 91.782 154.725 81.838 254.131-21.56 97.548-99.081 137.577-136.124 222.526M539.887-539.887c59.714 67.2 151.639 78.151 201.117 162.632 39.205 89.71-4.362 169.114 14.996 257.14 8.878 89.69 91.782 154.725 81.838 254.131-21.56 97.548-99.081 137.577-136.124 222.526-46.771 80.006-24.73 173.734-91.75 249.629M539.887-539.887c59.714 67.2 151.639 78.151 201.117 162.632 39.205 89.71-4.362 169.114 14.996 257.14 8.878 89.69 91.782 154.725 81.838 254.131-21.56 97.548-99.081 137.577-136.124 222.526-46.771 80.006-24.73 173.734-91.75 249.629-75.476 67.492-174.293 41.833-253.478 88.549M539.887-539.887c59.714 67.2 151.639 78.151 201.117 162.632 39.205 89.71-4.362 169.114 14.996 257.14 8.878 89.69 91.782 154.725 81.838 254.131-21.56 97.548-99.081 137.577-136.124 222.526-46.771 80.006-24.73 173.734-91.75 249.629-75.476 67.492-174.293 41.833-253.478 88.549-84.126 37.085-129.581 112.435-226.025 133.51M539.887-539.887c59.714 67.2 151.639 78.151 201.117 162.632 39.205 89.71-4.362 169.114 14.996 257.14 8.878 89.69 91.782 154.725 81.838 254.131-21.56 97.548-99.081 137.577-136.124 222.526-46.771 80.006-24.73 173.734-91.75 249.629-75.476 67.492-174.293 41.833-253.478 88.549-84.126 37.085-129.581 112.435-226.025 133.51-98.252 9.593-162.932-38.1-255.577-47.393M539.887-539.887c59.714 67.2 151.639 78.151 201.117 162.632 39.205 89.71-4.362 169.114 14.996 257.14 8.878 89.69 91.782 154.725 81.838 254.131-21.56 97.548-99.081 137.577-136.124 222.526-46.771 80.006-24.73 173.734-91.75 249.629-75.476 67.492-174.293 41.833-253.478 88.549-84.126 37.085-129.581 112.435-226.025 133.51-98.252 9.593-162.932-38.1-255.577-47.393-90.91-20.118-174.451 29.42-267.61-11.407M539.887-539.887c59.714 67.2 151.639 78.151 201.117 162.632 39.205 89.71-4.362 169.114 14.996 257.14 8.878 89.69 91.782 154.725 81.838 254.131-21.56 97.548-99.081 137.577-136.124 222.526-46.771 80.006-24.73 173.734-91.75 249.629-75.476 67.492-174.293 41.833-253.478 88.549-84.126 37.085-129.581 112.435-226.025 133.51-98.252 9.593-162.932-38.1-255.577-47.393-90.91-20.118-174.451 29.42-267.61-11.407-87.715-51.493-79.961-169.829-147.161-229.543" data-idx="56" transform="rotate(-3.107)">/&gt;</path></g><g data-idx="58"><path fill="none" stroke="url(#a)" stroke-width=".5" d="M542.55-542.55c60.009 67.531 159.158 76.385 209.086 162.093M542.55-542.55c60.009 67.531 159.158 76.385 209.086 162.093 39.508 90.983-28.534 176.121-9.53 262.529M542.55-542.55c60.009 67.531 159.158 76.385 209.086 162.093 39.508 90.983-28.534 176.121-9.53 262.529 8.717 88.043 78.187 150.428 68.681 246.618M542.55-542.55c60.009 67.531 159.158 76.385 209.086 162.093 39.508 90.983-28.534 176.121-9.53 262.529 8.717 88.043 78.187 150.428 68.681 246.618-20.746 94.406-89.228 138.486-125.632 221.444M542.55-542.55c60.009 67.531 159.158 76.385 209.086 162.093 39.508 90.983-28.534 176.121-9.53 262.529 8.717 88.043 78.187 150.428 68.681 246.618-20.746 94.406-89.228 138.486-125.632 221.444-45.903 78.105-25.447 167.577-90.87 241.529M542.55-542.55c60.009 67.531 159.158 76.385 209.086 162.093 39.508 90.983-28.534 176.121-9.53 262.529 8.717 88.043 78.187 150.428 68.681 246.618-20.746 94.406-89.228 138.486-125.632 221.444-45.903 78.105-25.447 167.577-90.87 241.529-73.662 65.75-165.473 55.741-244.54 101.655M542.55-542.55c60.009 67.531 159.158 76.385 209.086 162.093 39.508 90.983-28.534 176.121-9.53 262.529 8.717 88.043 78.187 150.428 68.681 246.618-20.746 94.406-89.228 138.486-125.632 221.444-45.903 78.105-25.447 167.577-90.87 241.529-73.662 65.75-165.473 55.741-244.54 101.655-83.915 36.302-121.539 114.299-218.046 135.524M542.55-542.55c60.009 67.531 159.158 76.385 209.086 162.093 39.508 90.983-28.534 176.121-9.53 262.529 8.717 88.043 78.187 150.428 68.681 246.618-20.746 94.406-89.228 138.486-125.632 221.444-45.903 78.105-25.447 167.577-90.87 241.529-73.662 65.75-165.473 55.741-244.54 101.655-83.915 36.302-121.539 114.299-218.046 135.524-98.333 9.734-161.745-76.434-249.973-85.181M542.55-542.55c60.009 67.531 159.158 76.385 209.086 162.093 39.508 90.983-28.534 176.121-9.53 262.529 8.717 88.043 78.187 150.428 68.681 246.618-20.746 94.406-89.228 138.486-125.632 221.444-45.903 78.105-25.447 167.577-90.87 241.529-73.662 65.75-165.473 55.741-244.54 101.655-83.915 36.302-121.539 114.299-218.046 135.524-98.333 9.734-161.745-76.434-249.973-85.181-86.588-19.056-168.87 38.74-258.841-.434M542.55-542.55c60.009 67.531 159.158 76.385 209.086 162.093 39.508 90.983-28.534 176.121-9.53 262.529 8.717 88.043 78.187 150.428 68.681 246.618-20.746 94.406-89.228 138.486-125.632 221.444-45.903 78.105-25.447 167.577-90.87 241.529-73.662 65.75-165.473 55.741-244.54 101.655-83.915 36.302-121.539 114.299-218.046 135.524-98.333 9.734-161.745-76.434-249.973-85.181-86.588-19.056-168.87 38.74-258.841-.434-84.743-49.477-97.904-140.668-165.435-200.677" data-idx="60" transform="rotate(-4.502)">/&gt;</path></g><g data-idx="62"><path fill="none" stroke="url(#a)" stroke-width=".5" d="M534.731-534.731c59.144 66.557 158.167 73.403 207.587 158.043M534.731-534.731c59.144 66.557 158.167 73.403 207.587 158.043 39.13 89.861-15.069 171.577 3.998 258.478M534.731-534.731c59.144 66.557 158.167 73.403 207.587 158.043 39.13 89.861-15.069 171.577 3.998 258.478 8.721 88.54 91.419 152.611 81.568 250.838M534.731-534.731c59.144 66.557 158.167 73.403 207.587 158.043 39.13 89.861-15.069 171.577 3.998 258.478 8.721 88.54 91.419 152.611 81.568 250.838-21.327 96.388-131.374 125.494-166.541 205.571m-126.612-872.93c59.144 66.557 158.167 73.403 207.587 158.043 39.13 89.861-15.069 171.577 3.998 258.478 8.721 88.54 91.419 152.611 81.568 250.838-21.327 96.388-131.374 125.494-166.541 205.571-44.335 75.388-10.969 176.922-76.023 249.795M534.731-534.731c59.144 66.557 158.167 73.403 207.587 158.043 39.13 89.861-15.069 171.577 3.998 258.478 8.721 88.54 91.419 152.611 81.568 250.838-21.327 96.388-131.374 125.494-166.541 205.571-44.335 75.388-10.969 176.922-76.023 249.795-73.169 64.721-158.821 53.611-237.189 99.293m186.6-1222.018c59.144 66.557 158.167 73.403 207.587 158.043 39.13 89.861-15.069 171.577 3.998 258.478 8.721 88.54 91.419 152.611 81.568 250.838-21.327 96.388-131.374 125.494-166.541 205.571-44.335 75.388-10.969 176.922-76.023 249.795-73.169 64.721-158.821 53.611-237.189 99.293-83.195 36.154-122.772 107.262-217.724 128.243M534.731-534.731c59.144 66.557 158.167 73.403 207.587 158.043 39.13 89.861-15.069 171.577 3.998 258.478 8.721 88.54 91.419 152.611 81.568 250.838-21.327 96.388-131.374 125.494-166.541 205.571-44.335 75.388-10.969 176.922-76.023 249.795-73.169 64.721-158.821 53.611-237.189 99.293-83.195 36.154-122.772 107.262-217.724 128.243-96.759 9.674-157.713-54.813-246.936-63.295m651.26-1286.966c59.144 66.557 158.167 73.403 207.587 158.043 39.13 89.861-15.069 171.577 3.998 258.478 8.721 88.54 91.419 152.611 81.568 250.838-21.327 96.388-131.374 125.494-166.541 205.571-44.335 75.388-10.969 176.922-76.023 249.795-73.169 64.721-158.821 53.611-237.189 99.293-83.195 36.154-122.772 107.262-217.724 128.243-96.759 9.674-157.713-54.813-246.936-63.295-87.608-18.911-167.043 20.682-255.924-18.006m907.184-1268.96c59.144 66.557 158.167 73.403 207.587 158.043 39.13 89.861-15.069 171.577 3.998 258.478 8.721 88.54 91.419 152.611 81.568 250.838-21.327 96.388-131.374 125.494-166.541 205.571-44.335 75.388-10.969 176.922-76.023 249.795-73.169 64.721-158.821 53.611-237.189 99.293-83.195 36.154-122.772 107.262-217.724 128.243-96.759 9.674-157.713-54.813-246.936-63.295-87.608-18.911-167.043 20.682-255.924-18.006-83.718-48.866-95.721-140.354-162.278-199.498" data-idx="64" transform="rotate(-5.738)">/&gt;</path></g><g data-idx="66"><path fill="none" stroke="url(#a)" stroke-width=".5" d="M527.316-527.316c58.324 65.635 145.176 76.375 193.517 158.544M527.316-527.316c58.324 65.635 145.176 76.375 193.517 158.544 38.348 87.281-5.419 169.126 13.088 254.597M527.316-527.316c58.324 65.635 145.176 76.375 193.517 158.544 38.348 87.281-5.419 169.126 13.088 254.597 8.333 87.055 101.792 146.59 92.19 244.593M527.316-527.316c58.324 65.635 145.176 76.375 193.517 158.544 38.348 87.281-5.419 169.126 13.088 254.597 8.333 87.055 101.792 146.59 92.19 244.593-21.056 96.195-107.089 133.199-143.058 215.884M527.316-527.316c58.324 65.635 145.176 76.375 193.517 158.544 38.348 87.281-5.419 169.126 13.088 254.597 8.333 87.055 101.792 146.59 92.19 244.593-21.056 96.195-107.089 133.199-143.058 215.884-45.438 77.884-33.698 166.453-98.466 239.222m-57.271-1112.84c58.324 65.635 145.176 76.375 193.517 158.544 38.348 87.281-5.419 169.126 13.088 254.597 8.333 87.055 101.792 146.59 92.19 244.593-21.056 96.195-107.089 133.199-143.058 215.884-45.438 77.884-33.698 166.453-98.466 239.222-72.873 64.652-166.298 41.846-242.937 86.662M527.316-527.316c58.324 65.635 145.176 76.375 193.517 158.544 38.348 87.281-5.419 169.126 13.088 254.597 8.333 87.055 101.792 146.59 92.19 244.593-21.056 96.195-107.089 133.199-143.058 215.884-45.438 77.884-33.698 166.453-98.466 239.222-72.873 64.652-166.298 41.846-242.937 86.662-81.375 35.498-121.253 118.376-215.701 138.801M527.316-527.316c58.324 65.635 145.176 76.375 193.517 158.544 38.348 87.281-5.419 169.126 13.088 254.597 8.333 87.055 101.792 146.59 92.19 244.593-21.056 96.195-107.089 133.199-143.058 215.884-45.438 77.884-33.698 166.453-98.466 239.222-72.873 64.652-166.298 41.846-242.937 86.662-81.375 35.498-121.253 118.376-215.701 138.801-96.194 9.182-157.09-58.128-245.364-67.007M527.316-527.316c58.324 65.635 145.176 76.375 193.517 158.544 38.348 87.281-5.419 169.126 13.088 254.597 8.333 87.055 101.792 146.59 92.19 244.593-21.056 96.195-107.089 133.199-143.058 215.884-45.438 77.884-33.698 166.453-98.466 239.222-72.873 64.652-166.298 41.846-242.937 86.662-81.375 35.498-121.253 118.376-215.701 138.801-96.194 9.182-157.09-58.128-245.364-67.007-86.618-19.193-167.938 35.036-257.509-4.139m904.24-1267.157c58.324 65.635 145.176 76.375 193.517 158.544 38.348 87.281-5.419 169.126 13.088 254.597 8.333 87.055 101.792 146.59 92.19 244.593-21.056 96.195-107.089 133.199-143.058 215.884-45.438 77.884-33.698 166.453-98.466 239.222-72.873 64.652-166.298 41.846-242.937 86.662-81.375 35.498-121.253 118.376-215.701 138.801-96.194 9.182-157.09-58.128-245.364-67.007-86.618-19.193-167.938 35.036-257.509-4.139-84.347-49.431-84.757-154.201-150.392-212.525" data-idx="68" transform="rotate(-6.799)">/&gt;</path></g><g data-idx="70"><path fill="none" stroke="url(#a)" stroke-width=".5" d="M533.861-533.861c59.048 66.449 142.504 83.15 190.791 165.773M533.861-533.861c59.048 66.449 142.504 83.15 190.791 165.773 38.241 87.725 1.812 160.278 21.202 247.105M533.861-533.861c59.048 66.449 142.504 83.15 190.791 165.773 38.241 87.725 1.812 160.278 21.202 247.105 9.05 88.505 67.912 150.979 58.746 246.419M533.861-533.861c59.048 66.449 142.504 83.15 190.791 165.773 38.241 87.725 1.812 160.278 21.202 247.105 9.05 88.505 67.912 150.979 58.746 246.419-20.32 93.701-99.999 137.173-135.749 218.17m-134.99-877.467c59.048 66.449 142.504 83.15 190.791 165.773 38.241 87.725 1.812 160.278 21.202 247.105 9.05 88.505 67.912 150.979 58.746 246.419-20.32 93.701-99.999 137.173-135.749 218.17-45.023 76.233-24.387 161.638-88.24 233.884m-46.75-1111.351c59.048 66.449 142.504 83.15 190.791 165.773 38.241 87.725 1.812 160.278 21.202 247.105 9.05 88.505 67.912 150.979 58.746 246.419-20.32 93.701-99.999 137.173-135.749 218.17-45.023 76.233-24.387 161.638-88.24 233.884-71.901 64.241-171.39 37.828-246.549 81.662M533.861-533.861c59.048 66.449 142.504 83.15 190.791 165.773 38.241 87.725 1.812 160.278 21.202 247.105 9.05 88.505 67.912 150.979 58.746 246.419-20.32 93.701-99.999 137.173-135.749 218.17-45.023 76.233-24.387 161.638-88.24 233.884-71.901 64.241-171.39 37.828-246.549 81.662-79.791 34.696-111.169 123.759-204.735 144.53M533.861-533.861c59.048 66.449 142.504 83.15 190.791 165.773 38.241 87.725 1.812 160.278 21.202 247.105 9.05 88.505 67.912 150.979 58.746 246.419-20.32 93.701-99.999 137.173-135.749 218.17-45.023 76.233-24.387 161.638-88.24 233.884-71.901 64.241-171.39 37.828-246.549 81.662-79.791 34.696-111.169 123.759-204.735 144.53-95.36 9.63-158.852-64.694-245.506-73.287m650.04-1264.256c59.048 66.449 142.504 83.15 190.791 165.773 38.241 87.725 1.812 160.278 21.202 247.105 9.05 88.505 67.912 150.979 58.746 246.419-20.32 93.701-99.999 137.173-135.749 218.17-45.023 76.233-24.387 161.638-88.24 233.884-71.901 64.241-171.39 37.828-246.549 81.662-79.791 34.696-111.169 123.759-204.735 144.53-95.36 9.63-158.852-64.694-245.506-73.287-85.043-18.718-172.184 42.476-261.027 3.225M533.861-533.861c59.048 66.449 142.504 83.15 190.791 165.773 38.241 87.725 1.812 160.278 21.202 247.105 9.05 88.505 67.912 150.979 58.746 246.419-20.32 93.701-99.999 137.173-135.749 218.17-45.023 76.233-24.387 161.638-88.24 233.884-71.901 64.241-171.39 37.828-246.549 81.662-79.791 34.696-111.169 123.759-204.735 144.53-95.36 9.63-158.852-64.694-245.506-73.287-85.043-18.718-172.184 42.476-261.027 3.225-83.613-49.421-90.206-140.711-156.655-199.759" data-idx="72" transform="rotate(-7.687)">/&gt;</path></g><g data-idx="74"><path fill="none" stroke="url(#a)" stroke-width=".5" d="M525.237-525.237c58.095 65.375 161.471 63.618 210.969 147.532M525.237-525.237c58.095 65.375 161.471 63.618 210.969 147.532 39.291 89.149-30.27 179.312-11.845 263.661M525.237-525.237c58.095 65.375 161.471 63.618 210.969 147.532 39.291 89.149-30.27 179.312-11.845 263.661 8.384 85.93 74.347 144.397 65.243 238.065M525.237-525.237c58.095 65.375 161.471 63.618 210.969 147.532 39.291 89.149-30.27 179.312-11.845 263.661 8.384 85.93 74.347 144.397 65.243 238.065-20.05 91.948-89.511 134.48-124.747 214.976m-139.62-864.234c58.095 65.375 161.471 63.618 210.969 147.532 39.291 89.149-30.27 179.312-11.845 263.661 8.384 85.93 74.347 144.397 65.243 238.065-20.05 91.948-89.511 134.48-124.747 214.976-44.453 75.795-25.776 161.556-89.039 233.203M525.237-525.237c58.095 65.375 161.471 63.618 210.969 147.532 39.291 89.149-30.27 179.312-11.845 263.661 8.384 85.93 74.347 144.397 65.243 238.065-20.05 91.948-89.511 134.48-124.747 214.976-44.453 75.795-25.776 161.556-89.039 233.203-71.247 63.714-169.357 32.811-243.286 76.391M525.237-525.237c58.095 65.375 161.471 63.618 210.969 147.532 39.291 89.149-30.27 179.312-11.845 263.661 8.384 85.93 74.347 144.397 65.243 238.065-20.05 91.948-89.511 134.48-124.747 214.976-44.453 75.795-25.776 161.556-89.039 233.203-71.247 63.714-169.357 32.811-243.286 76.391-78.539 34.59-115.137 133.992-208.626 154.119M525.237-525.237c58.095 65.375 161.471 63.618 210.969 147.532 39.291 89.149-30.27 179.312-11.845 263.661 8.384 85.93 74.347 144.397 65.243 238.065-20.05 91.948-89.511 134.48-124.747 214.976-44.453 75.795-25.776 161.556-89.039 233.203-71.247 63.714-169.357 32.811-243.286 76.391-78.539 34.59-115.137 133.992-208.626 154.119-95.208 9-153.588-71.757-239.297-80.313M525.237-525.237c58.095 65.375 161.471 63.618 210.969 147.532 39.291 89.149-30.27 179.312-11.845 263.661 8.384 85.93 74.347 144.397 65.243 238.065-20.05 91.948-89.511 134.48-124.747 214.976-44.453 75.795-25.776 161.556-89.039 233.203-71.247 63.714-169.357 32.811-243.286 76.391-78.539 34.59-115.137 133.992-208.626 154.119-95.208 9-153.588-71.757-239.297-80.313-84.109-18.57-164.893 44.956-253.143 6.694M525.237-525.237c58.095 65.375 161.471 63.618 210.969 147.532 39.291 89.149-30.27 179.312-11.845 263.661 8.384 85.93 74.347 144.397 65.243 238.065-20.05 91.948-89.511 134.48-124.747 214.976-44.453 75.795-25.776 161.556-89.039 233.203-71.247 63.714-169.357 32.811-243.286 76.391-78.539 34.59-115.137 133.992-208.626 154.119-95.208 9-153.588-71.757-239.297-80.313-84.109-18.57-164.893 44.956-253.143 6.694-83.141-48.371-91.328-145.759-156.703-203.854" data-idx="76" transform="rotate(-8.408)">/&gt;</path></g><g data-idx="78"><path fill="none" stroke="url(#a)" stroke-width=".5" d="M512.859-512.859c56.725 63.835 156.363 62.599 204.646 144.379M512.859-512.859c56.725 63.835 156.363 62.599 204.646 144.379 38.337 86.887-10.152 168.914 8.401 253.437M512.859-512.859c56.725 63.835 156.363 62.599 204.646 144.379 38.337 86.887-10.152 168.914 8.401 253.437 8.49 86.119 79.209 150.729 69.434 245.113M512.859-512.859c56.725 63.835 156.363 62.599 204.646 144.379 38.337 86.887-10.152 168.914 8.401 253.437 8.49 86.119 79.209 150.729 69.434 245.113-20.801 92.58-111.132 125.974-145.969 204.619M512.859-512.859c56.725 63.835 156.363 62.599 204.646 144.379 38.337 86.887-10.152 168.914 8.401 253.437 8.49 86.119 79.209 150.729 69.434 245.113-20.801 92.58-111.132 125.974-145.969 204.619-43.84 74.006-29.136 154.422-90.924 223.932m-45.588-1071.48c56.725 63.835 156.363 62.599 204.646 144.379 38.337 86.887-10.152 168.914 8.401 253.437 8.49 86.119 79.209 150.729 69.434 245.113-20.801 92.58-111.132 125.974-145.969 204.619-43.84 74.006-29.136 154.422-90.924 223.932-69.53 61.766-150.192 55.095-225.156 98.827M512.859-512.859c56.725 63.835 156.363 62.599 204.646 144.379 38.337 86.887-10.152 168.914 8.401 253.437 8.49 86.119 79.209 150.729 69.434 245.113-20.801 92.58-111.132 125.974-145.969 204.619-43.84 74.006-29.136 154.422-90.924 223.932-69.53 61.766-150.192 55.095-225.156 98.827-79.585 34.616-113.702 108.81-205.288 129.308M512.859-512.859c56.725 63.835 156.363 62.599 204.646 144.379 38.337 86.887-10.152 168.914 8.401 253.437 8.49 86.119 79.209 150.729 69.434 245.113-20.801 92.58-111.132 125.974-145.969 204.619-43.84 74.006-29.136 154.422-90.924 223.932-69.53 61.766-150.192 55.095-225.156 98.827-79.585 34.616-113.702 108.81-205.288 129.308-93.36 9.592-161.048-39.339-248.668-48.404M512.859-512.859c56.725 63.835 156.363 62.599 204.646 144.379 38.337 86.887-10.152 168.914 8.401 253.437 8.49 86.119 79.209 150.729 69.434 245.113-20.801 92.58-111.132 125.974-145.969 204.619-43.84 74.006-29.136 154.422-90.924 223.932-69.53 61.766-150.192 55.095-225.156 98.827-79.585 34.616-113.702 108.81-205.288 129.308-93.36 9.592-161.048-39.339-248.668-48.404-85.948-19.301-152.224 10.907-238.399-26.362M512.859-512.859c56.725 63.835 156.363 62.599 204.646 144.379 38.337 86.887-10.152 168.914 8.401 253.437 8.49 86.119 79.209 150.729 69.434 245.113-20.801 92.58-111.132 125.974-145.969 204.619-43.84 74.006-29.136 154.422-90.924 223.932-69.53 61.766-150.192 55.095-225.156 98.827-79.585 34.616-113.702 108.81-205.288 129.308-93.36 9.592-161.048-39.339-248.668-48.404-85.948-19.301-152.224 10.907-238.399-26.362-81.196-47.138-89.96-142.406-153.795-199.131" data-idx="80" transform="rotate(-8.976)">/&gt;</path></g><g data-idx="82"><path fill="none" stroke="url(#a)" stroke-width=".5" d="M510.353-510.353c56.448 63.523 140.961 79.627 187.073 159.166M510.353-510.353c56.448 63.523 140.961 79.627 187.073 159.166 36.443 84.408-3.952 153.341 14.495 236.221M510.353-510.353c56.448 63.523 140.961 79.627 187.073 159.166 36.443 84.408-3.952 153.341 14.495 236.221 8.578 84.475 81.52 145.542 72.426 238.589M510.353-510.353c56.448 63.523 140.961 79.627 187.073 159.166 36.443 84.408-3.952 153.341 14.495 236.221 8.578 84.475 81.52 145.542 72.426 238.589-19.967 91.333-89.816 135.762-125.118 215.598M510.353-510.353c56.448 63.523 140.961 79.627 187.073 159.166 36.443 84.408-3.952 153.341 14.495 236.221 8.578 84.475 81.52 145.542 72.426 238.589-19.967 91.333-89.816 135.762-125.118 215.598-44.44 75.133-47.822 142.757-108.71 211.28M510.353-510.353c56.448 63.523 140.961 79.627 187.073 159.166 36.443 84.408-3.952 153.341 14.495 236.221 8.578 84.475 81.52 145.542 72.426 238.589-19.967 91.333-89.816 135.762-125.118 215.598-44.44 75.133-47.822 142.757-108.71 211.28-68.521 60.89-152.637 41.825-225.015 84.486m184.849-1145.34c56.448 63.523 140.961 79.627 187.073 159.166 36.443 84.408-3.952 153.341 14.495 236.221 8.578 84.475 81.52 145.542 72.426 238.589-19.967 91.333-89.816 135.762-125.118 215.598-44.44 75.133-47.822 142.757-108.71 211.28-68.521 60.89-152.637 41.825-225.015 84.486-76.891 33.857-105.867 142.613-198.786 163.039M510.353-510.353c56.448 63.523 140.961 79.627 187.073 159.166 36.443 84.408-3.952 153.341 14.495 236.221 8.578 84.475 81.52 145.542 72.426 238.589-19.967 91.333-89.816 135.762-125.118 215.598-44.44 75.133-47.822 142.757-108.71 211.28-68.521 60.89-152.637 41.825-225.015 84.486-76.891 33.857-105.867 142.613-198.786 163.039-94.676 9.362-152.23-87.239-235.597-95.164M510.353-510.353c56.448 63.523 140.961 79.627 187.073 159.166 36.443 84.408-3.952 153.341 14.495 236.221 8.578 84.475 81.52 145.542 72.426 238.589-19.967 91.333-89.816 135.762-125.118 215.598-44.44 75.133-47.822 142.757-108.71 211.28-68.521 60.89-152.637 41.825-225.015 84.486-76.891 33.857-105.867 142.613-198.786 163.039-94.676 9.362-152.23-87.239-235.597-95.164-81.858-17.669-168.73 57.229-256.145 19.331M510.353-510.353c56.448 63.523 140.961 79.627 187.073 159.166 36.443 84.408-3.952 153.341 14.495 236.221 8.578 84.475 81.52 145.542 72.426 238.589-19.967 91.333-89.816 135.762-125.118 215.598-44.44 75.133-47.822 142.757-108.71 211.28-68.521 60.89-152.637 41.825-225.015 84.486-76.891 33.857-105.867 142.613-198.786 163.039-94.676 9.362-152.23-87.239-235.597-95.164-81.858-17.669-168.73 57.229-256.145 19.331-82.355-47.91-81.806-155.392-145.329-211.84" data-idx="84" transform="rotate(-9.404)">/&gt;</path></g></g><text x="756" y="412" fill-opacity=".1" stroke="#fff" stroke-opacity=".1" data-idx="87" data-watermark="true" dominant-baseline="middle" font-size="15" style="opacity:1;font-size:15px" text-anchor="middle">LOADING.IO</text></svg>